<svg width="16" height="18" viewBox="0 0 16 18" fill="none" xmlns="http://www.w3.org/2000/svg">
<path d="M13.82 15.82H2.18001V6.68001H13.82V15.82ZM11.32 0.820007V2.50001H4.68001V0.820007H3.00001V2.50001H2.18001C1.95687 2.49156 1.73435 2.52883 1.52613 2.60951C1.31791 2.69019 1.12838 2.81258 0.969179 2.96917C0.812586 3.12837 0.690191 3.3179 0.609511 3.52612C0.52883 3.73434 0.491568 3.95686 0.500012 4.18001V15.82C0.495664 16.0415 0.536753 16.2615 0.620743 16.4664C0.704734 16.6714 0.829843 16.857 0.988346 17.0117C1.14307 17.1702 1.32864 17.2953 1.5336 17.3793C1.73856 17.4633 1.95855 17.5044 2.18001 17.5H13.82C14.0415 17.5044 14.2615 17.4633 14.4664 17.3793C14.6714 17.2953 14.857 17.1702 15.0117 17.0117C15.1702 16.857 15.2953 16.6714 15.3793 16.4664C15.4633 16.2615 15.5044 16.0415 15.5 15.82V4.18001C15.5081 3.95522 15.4687 3.73126 15.3846 3.52266C15.3005 3.31406 15.1734 3.12549 15.0117 2.96917C14.8541 2.81577 14.6676 2.69527 14.463 2.61472C14.2584 2.53416 14.0398 2.49517 13.82 2.50001H13V0.820007H11.32Z" fill="#4C4C4C"/>
<path opacity="0.72" d="M12.18 10H8V14.18H12.18V10Z" fill="#4C4C4C"/>
</svg>
