<svg id="cheap-mono" xmlns="http://www.w3.org/2000/svg" xmlns:xlink="http://www.w3.org/1999/xlink" width="24" height="24" viewBox="0 0 24 24">
  <defs>
    <clipPath id="clip-path">
      <rect id="Rectangle_4443" data-name="Rectangle 4443" width="24" height="24" fill="none"/>
    </clipPath>
  </defs>
  <g id="cheap-mono-2" data-name="cheap-mono" clip-path="url(#clip-path)">
    <g id="Group_14248" data-name="Group 14248" transform="translate(-8.153 -56.718)">
      <path id="Subtraction_45" data-name="Subtraction 45" d="M5.161,9.581a5.3,5.3,0,0,1-3.8-1.564A4.713,4.713,0,0,1,.076,5.529V5.523A4.929,4.929,0,0,1,0,4.819,4.7,4.7,0,0,1,1.707,1.23,5.324,5.324,0,0,1,6.676.235a4.843,4.843,0,0,1,1.82.924A4.55,4.55,0,0,1,10.2,3.824l0,.019a8.113,8.113,0,0,1,.074.94,5.785,5.785,0,0,1-.19,1.386A4.686,4.686,0,0,1,8.611,8.337,5.314,5.314,0,0,1,5.161,9.581Zm0-7.179a2.468,2.468,0,0,0-2.541,2.38A2.468,2.468,0,0,0,5.158,7.164,2.469,2.469,0,0,0,7.7,4.783,2.468,2.468,0,0,0,5.158,2.4Z" transform="translate(9.153 65.426)" stroke="rgba(255,0,0,0)" stroke-miterlimit="10" stroke-width="1"/>
      <path id="Path_12107" data-name="Path 12107" d="M343.642,370.566h-.2c-2.7-.014-4.479-.54-4.895-1.239l0,0v2.132c0,.817,2.238,1.457,5.045,1.457s5.083-.64,5.083-1.457V369.11C348.675,369.883,346.372,370.552,343.642,370.566Z" transform="translate(-317.522 -297.194)" stroke="rgba(255,0,0,0)" stroke-width="1" opacity="0.6"/>
      <path id="Path_12108" data-name="Path 12108" d="M343.554,337.059c-2.693,0-4.7-.568-5.007-1.279h0v2.381c.417.711,2.238,1.244,5.007,1.244s5.121-.675,5.121-1.457v-2.274C348.485,336.455,346.247,337.059,343.554,337.059Z" transform="translate(-317.522 -266.032)" stroke="rgba(255,0,0,0)" stroke-width="1" opacity="0.5"/>
      <path id="Path_12109" data-name="Path 12109" d="M348.19,314.248c-.19.782-2.428,1.386-5.121,1.386s-4.7-.568-5.007-1.279a.3.3,0,0,1-.038-.178V314c.266-.711,2.39-1.279,4.969-1.315h.076a13.642,13.642,0,0,1,3.983.569c.721.249,1.138.569,1.138.924v.071Z" transform="translate(-317.037 -244.607)" stroke="rgba(255,0,0,0)" stroke-width="1"/>
      <path id="Path_12110" data-name="Path 12110" d="M275.645,220.909c-.455.675-2.693,1.173-5.159,1.173s-4.893-.6-5.045-1.35a.125.125,0,0,1-.038-.107c0-.782,2.276-1.457,5.083-1.457,2.162,0,4.134.391,4.893.959a.6.6,0,0,1,.341.5A.365.365,0,0,1,275.645,220.909Z" transform="translate(-249.689 -157.451)" stroke="rgba(255,0,0,0)" stroke-width="1"/>
      <path id="Path_12111" data-name="Path 12111" d="M271.456,244.936c-2.349,0-4.663-.549-5.007-1.246v2.265l.038.011a4.838,4.838,0,0,1,1.821.924c.03.023.059.047.088.071a14.088,14.088,0,0,0,3.06.32c2.693,0,5.007-.675,5.159-1.457v-2.061C276.159,244.438,273.921,244.936,271.456,244.936Z" transform="translate(-250.658 -180.305)" stroke="rgba(255,0,0,0)" stroke-width="1" opacity="0.4"/>
      <path id="Path_12112" data-name="Path 12112" d="M301.387,275.285a1.86,1.86,0,0,1-.752.529,5.42,5.42,0,0,1-.6.225,8.98,8.98,0,0,1-.928.232c-.27.053-.556.1-.855.137q-.224.029-.458.05c-.466.044-.958.067-1.463.067a14.083,14.083,0,0,1-3.06-.32,4.557,4.557,0,0,1,1.618,2.594v0l1.441.069.19.071c.266-.711,2.39-1.279,4.969-1.315v-2.558A.553.553,0,0,1,301.387,275.285Z" transform="translate(-275.529 -209.549)" stroke="rgba(255,0,0,0)" stroke-width="1" opacity="0.5"/>
      <path id="Path_12113" data-name="Path 12113" d="M315.4,330.271v-.178c0-.012.01-.023.016-.034-.005.011-.011.023-.016.034l-.19-.071-1.441-.069a8.173,8.173,0,0,1,.076.958,5.8,5.8,0,0,1-.19,1.386c-.009.026-.018.052-.027.078l1.582.064h.228v-1.99h0A.3.3,0,0,1,315.4,330.271Z" transform="translate(-294.408 -260.701)" stroke="rgba(255,0,0,0)" stroke-width="1" opacity="0.6"/>
      <path id="Path_12114" data-name="Path 12114" d="M297.326,365.614l-1.582-.064a4.714,4.714,0,0,1-1.4,2.044,15.011,15.011,0,0,0,2.944.295h.266v-1.883h0v-.391Z" transform="translate(-276.528 -293.877)" stroke="rgba(255,0,0,0)" stroke-width="1" opacity="0.7"/>
      <path id="Path_12116" data-name="Path 12116" d="M213.611,309.029a2.386,2.386,0,1,1-2.541,2.381h0A2.465,2.465,0,0,1,213.611,309.029Z" transform="translate(-199.3 -241.2)" stroke="rgba(255,0,0,0)" stroke-width="1" opacity="0.4"/>
    </g>
  </g>
</svg>
