<svg width="14" height="14" viewBox="0 0 14 14" fill="none" xmlns="http://www.w3.org/2000/svg">
<path d="M6.99988 0.343876C6.12428 0.33848 5.25633 0.506945 4.44633 0.839504C3.63633 1.17206 2.9004 1.6621 2.28121 2.28121C1.6621 2.9004 1.17206 3.63633 0.839505 4.44633C0.506945 5.25633 0.33848 6.12428 0.343876 6.99988C0.33848 7.87547 0.506945 8.74342 0.839505 9.55342C1.17206 10.3634 1.6621 11.0993 2.28121 11.7185C2.9004 12.3376 3.63633 12.8277 4.44633 13.1602C5.25633 13.4928 6.12428 13.6613 6.99988 13.6559C7.87547 13.6613 8.74343 13.4928 9.55342 13.1602C10.3634 12.8277 11.0993 12.3376 11.7185 11.7185C12.3377 11.0993 12.8277 10.3634 13.1602 9.55342C13.4928 8.74342 13.6613 7.87547 13.6559 6.99988C13.6613 6.12428 13.4928 5.25633 13.1602 4.44633C12.8277 3.63633 12.3377 2.9004 11.7185 2.28121C11.0993 1.6621 10.3634 1.17206 9.55342 0.839504C8.74343 0.506945 7.87547 0.33848 6.99988 0.343876ZM9.81254 9.81054L6.34588 7.65454V3.65454H7.34588V7.12121L10.3459 8.93388L9.81254 9.81054Z" fill="#4C4C4C"/>
</svg>
