<svg width="14" height="14" viewBox="0 0 14 14" fill="none" xmlns="http://www.w3.org/2000/svg">
<path d="M7.00016 13.6668C5.23265 13.6649 3.53807 12.9619 2.28825 11.7121C1.03843 10.4623 0.335437 8.76768 0.333496 7.00016C0.335613 5.2327 1.03863 3.53824 2.28841 2.28845C3.5382 1.03867 5.2327 0.335613 7.00016 0.333496C8.76762 0.335613 10.4621 1.03867 11.7119 2.28845C12.9617 3.53824 13.6647 5.2327 13.6668 7.00016C13.6649 8.76768 12.9619 10.4623 11.7121 11.7121C10.4623 12.9619 8.76768 13.6649 7.00016 13.6668ZM7.00016 3.00016C5.93968 3.0014 4.92306 3.42322 4.17318 4.1731C3.4233 4.92297 3.0014 5.93968 3.00016 7.00016C3.0014 8.06065 3.4233 9.07735 4.17318 9.82723C4.92306 10.5771 5.93968 10.9989 7.00016 11.0002C8.0607 10.9991 9.07756 10.5773 9.82747 9.82743C10.5774 9.07752 10.9991 8.0607 11.0002 7.00016C10.9989 5.93968 10.577 4.92297 9.82715 4.1731C9.07727 3.42322 8.06065 3.0014 7.00016 3.00016Z" fill="#4C4C4C"/>
<g opacity="0.72">
<path opacity="0.72" d="M3.75016 2.3121L1.77083 0.332764L0.333496 1.7081L2.34416 3.68743L3.75016 2.3121Z" fill="#4C4C4C"/>
<path opacity="0.72" d="M11.7293 3.75016L13.7087 1.77083L12.3333 0.333496L10.354 2.34416L11.7293 3.75016Z" fill="#4C4C4C"/>
<path opacity="0.72" d="M2.31216 10.354L0.333496 12.3333L1.7395 13.7393L3.75016 11.76L2.31216 10.354Z" fill="#4C4C4C"/>
<path opacity="0.72" d="M10.3853 11.7607L12.3959 13.7393L13.7713 12.3333L11.7913 10.354L10.3853 11.7607Z" fill="#4C4C4C"/>
</g>
</svg>
