<svg width="14" height="14" viewBox="0 0 14 14" fill="none" xmlns="http://www.w3.org/2000/svg">
<path opacity="0.32" d="M2.97619 10.0531L0.79043 6.87743C0.67779 6.71137 0.608444 6.51981 0.588681 6.32014C0.568917 6.12046 0.599362 5.91901 0.677263 5.7341L0.910593 5.18459L1.77043 3.16626C1.70804 3.32961 1.68178 3.50454 1.69343 3.67901L1.85036 5.92951L1.89061 6.52742C1.89987 6.66122 1.9314 6.79253 1.98392 6.91593L2.97619 10.0531Z" fill="#FF5A00"/>
<path opacity="0.72" d="M4.1615 4.47244C4.0711 4.50178 3.97576 4.51275 3.88106 4.50473C3.78636 4.49671 3.69422 4.46985 3.61005 4.42573C3.52587 4.3816 3.45136 4.3211 3.39089 4.24778C3.33042 4.17446 3.28522 4.0898 3.25792 3.99877L2.48441 1.54878C2.42471 1.36455 2.4396 1.16426 2.52586 0.990866C2.61211 0.817475 2.76289 0.684796 2.94584 0.62128C3.03623 0.591943 3.13157 0.580948 3.22627 0.58897C3.32097 0.596991 3.41311 0.623868 3.49729 0.667993C3.58146 0.712117 3.65598 0.772604 3.71645 0.845923C3.77692 0.919242 3.82211 1.0039 3.84941 1.09494L4.62292 3.54494C4.68262 3.72917 4.66774 3.92946 4.58148 4.10286C4.49522 4.27625 4.34445 4.40892 4.1615 4.47244Z" fill="#FF5A00"/>
<path opacity="0.48" d="M5.3696 13.2692C5.18067 13.1691 5.01875 13.0248 4.89767 12.8486L2.97793 10.058L1.98334 6.90796C2.08642 7.15806 2.27354 7.36436 2.51243 7.49129L9.50134 11.1546L6.72002 13.1735C6.52655 13.3145 6.29733 13.3982 6.05854 13.4152C5.81975 13.4321 5.58101 13.3815 5.3696 13.2692Z" fill="#FF5A00"/>
<path opacity="0.88" d="M8.41225 5.229C8.3897 5.26943 8.35925 5.30491 8.32271 5.33334C8.28617 5.36176 8.24431 5.38255 8.19957 5.39447C8.15484 5.40639 8.10818 5.40919 8.06234 5.40271C8.0165 5.39623 7.97244 5.38059 7.93276 5.35675C7.85213 5.30693 7.79402 5.22772 7.77073 5.13584C7.74743 5.04397 7.76076 4.94663 7.80791 4.86441C7.83038 4.82422 7.86065 4.78891 7.89694 4.76056C7.93324 4.73221 7.97483 4.7114 8.01928 4.69934C8.06372 4.68728 8.11012 4.6842 8.15576 4.69031C8.20141 4.69642 8.24539 4.7116 8.2851 4.73492C8.36611 4.78407 8.42484 4.86277 8.44889 4.95442C8.47295 5.04607 8.46044 5.14348 8.414 5.22608L8.41225 5.229Z" fill="#FF5A00"/>
<path opacity="0.88" d="M9.7831 8.55639C9.76055 8.59682 9.7301 8.6323 9.69356 8.66073C9.65702 8.68915 9.61516 8.70994 9.57042 8.72186C9.52569 8.73378 9.47901 8.73658 9.43317 8.7301C9.38734 8.72362 9.34328 8.70799 9.30361 8.68414C9.22298 8.63432 9.16487 8.55511 9.14158 8.46323C9.11828 8.37136 9.13161 8.27403 9.17876 8.19181C9.20123 8.15161 9.2315 8.1163 9.26779 8.08795C9.30408 8.0596 9.34568 8.03879 9.39013 8.02673C9.43457 8.01467 9.48097 8.01159 9.52661 8.0177C9.57226 8.02381 9.61622 8.03899 9.65593 8.06232C9.73684 8.11156 9.79546 8.1903 9.8194 8.28194C9.84335 8.37358 9.83075 8.47094 9.78426 8.55347L9.7831 8.55639Z" fill="#FF5A00"/>
<path d="M12.7039 4.69071L5.72369 1.03263C5.5495 0.94077 5.35407 0.896742 5.15732 0.905042C4.96057 0.913343 4.76953 0.973671 4.6037 1.07988L3.97135 1.48822L4.6212 3.54854C4.63528 3.60717 4.64194 3.66734 4.64103 3.72763C4.7341 3.83553 4.79584 3.96686 4.81953 4.10738C4.84397 4.25083 4.82825 4.39827 4.7741 4.53334C4.71994 4.66842 4.62947 4.78588 4.51269 4.87272C4.50511 4.87855 4.49693 4.88379 4.48877 4.88904C4.48115 4.89481 4.47317 4.90007 4.46486 4.9048C4.44005 4.92031 4.41432 4.93433 4.38785 4.94679C4.37969 4.95092 4.37132 4.95463 4.36277 4.95788C4.34372 4.96628 4.32426 4.97367 4.30445 4.98004C4.2088 5.01109 4.10792 5.02272 4.00772 5.01424C3.90753 5.00576 3.81003 4.97736 3.72097 4.93068C3.63191 4.884 3.55307 4.81999 3.48908 4.74242C3.4251 4.66485 3.37725 4.57527 3.34836 4.47896L3.33903 4.44746C3.33181 4.42194 3.32597 4.39604 3.32153 4.36988C3.30903 4.28928 3.30903 4.20724 3.32153 4.12664C3.29466 4.08742 3.27179 4.04558 3.25328 4.00179L2.71368 2.29263L2.22427 2.60705C2.04717 2.72177 1.90415 2.88196 1.81015 3.07088C1.71615 3.2598 1.67462 3.47051 1.68993 3.68097L1.84627 5.93088L1.88652 6.52879C1.89903 6.72891 1.96273 6.92246 2.07152 7.09089C2.1803 7.25932 2.33051 7.397 2.50777 7.49072L9.48853 11.15C9.64171 11.2297 9.80935 11.2779 9.9815 11.2916C10.1536 11.3054 10.3268 11.2844 10.4907 11.23C10.6546 11.1756 10.8059 11.0889 10.9357 10.9749C11.0654 10.861 11.171 10.7221 11.2461 10.5666L13.2697 6.49846C13.429 6.18272 13.459 5.81735 13.3533 5.47985C13.2477 5.14235 13.0147 4.85929 12.7039 4.69071ZM7.19544 4.50171C7.26281 4.37954 7.35404 4.27217 7.46374 4.18597C7.57343 4.09977 7.69933 4.03649 7.83396 3.99992C7.96859 3.96335 8.1092 3.95424 8.24743 3.9731C8.38566 3.99196 8.51869 4.03841 8.63861 4.10971C8.8819 4.25888 9.05761 4.49685 9.12859 4.77326C9.19957 5.04967 9.16026 5.34285 9.01895 5.59079C8.95147 5.71285 8.86016 5.82013 8.75044 5.90622C8.64072 5.99232 8.51482 6.0555 8.38021 6.09201C8.24561 6.12851 8.10504 6.1376 7.96685 6.11874C7.82867 6.09988 7.69568 6.05346 7.57578 5.98222C7.33276 5.83295 7.15724 5.59508 7.08628 5.31885C7.01532 5.04262 7.05446 4.74962 7.19544 4.50171ZM6.33853 7.66164C6.30935 7.57157 6.31663 7.47365 6.35884 7.38891C6.40105 7.30417 6.47481 7.23935 6.56428 7.20838L10.7713 5.53829C10.8146 5.522 10.8607 5.51446 10.9069 5.5161C10.9531 5.51773 10.9986 5.52851 11.0406 5.54782C11.0827 5.56713 11.1205 5.59459 11.1518 5.6286C11.1832 5.66261 11.2075 5.70251 11.2234 5.74597V5.75064C11.2575 5.8395 11.2554 5.93822 11.2174 6.02552C11.1794 6.11281 11.1087 6.18169 11.0204 6.2173L6.77836 7.89612C6.73409 7.90994 6.68751 7.91484 6.64134 7.91051C6.59517 7.90617 6.55032 7.8927 6.50939 7.87088C6.46847 7.84906 6.43229 7.81932 6.40296 7.7834C6.37362 7.74748 6.35173 7.7061 6.33853 7.66164ZM8.94836 9.31072C8.70484 9.16162 8.52885 8.92364 8.45765 8.64711C8.38645 8.37059 8.42561 8.07721 8.56685 7.82905C8.63421 7.70688 8.72547 7.59949 8.83516 7.51329C8.94485 7.42709 9.07076 7.36383 9.20539 7.32726C9.34002 7.29069 9.48062 7.28156 9.61885 7.30042C9.75708 7.31928 9.8901 7.36575 10.01 7.43705C10.2533 7.58622 10.429 7.82418 10.5 8.1006C10.571 8.37701 10.5317 8.67019 10.3904 8.91813C10.323 9.04018 10.2319 9.14747 10.1223 9.23363C10.0128 9.3198 9.88701 9.38311 9.75253 9.41977C9.61805 9.45644 9.47757 9.46573 9.33944 9.4471C9.2013 9.42846 9.06832 9.38229 8.94836 9.3113V9.31072Z" fill="#FF5A00"/>
</svg>
