<svg width="70" height="70" viewBox="0 0 70 70" fill="none" xmlns="http://www.w3.org/2000/svg">
<path d="M48.9484 30.2599L31.6342 30.2651L28.2663 9.15252C28.2118 8.81579 28.2311 8.47124 28.3229 8.14272C28.4147 7.8142 28.5769 7.50956 28.7981 7.24989C29.0193 6.99022 29.2943 6.78173 29.604 6.63885C29.9137 6.49596 30.2508 6.4221 30.592 6.42238C30.9651 6.42379 31.3324 6.51471 31.6631 6.6875C31.9938 6.86029 32.2782 7.10991 32.4924 7.4154L48.9484 30.2599Z" fill="#1882FF"/>
<path d="M20.208 31.0248L20.2443 31.1285C17.9571 31.7065 15.7018 32.404 13.4876 33.2182L13.4539 33.1119L11.9735 24.9267C11.8556 24.4014 11.9345 23.8511 12.1951 23.38C12.4557 22.9089 12.88 22.5497 13.3877 22.3705C13.8954 22.1913 14.4511 22.2044 14.9498 22.4074C15.4484 22.6105 15.8553 22.9893 16.0933 23.4722L20.208 31.0248Z" fill="#1882FF"/>
<path d="M16.1037 46.9621C15.9122 47.3119 15.6307 47.6042 15.2884 47.8089C14.9461 48.0135 14.5554 48.1231 14.1566 48.1263C13.867 48.1268 13.5802 48.0701 13.3126 47.9595C13.045 47.849 12.8019 47.6867 12.5971 47.4819C12.3924 47.2772 12.2301 47.034 12.1195 46.7664C12.0089 46.4988 11.9523 46.212 11.9528 45.9225C11.9531 45.7824 11.9661 45.6427 11.9917 45.505L13.4954 37.312L13.5291 37.2057C15.6794 38.0044 17.8698 38.6907 20.0913 39.2617L20.2469 39.4173L16.1037 46.9621Z" fill="#1882FF"/>
<path d="M32.4924 63.0397C32.1839 63.4713 31.7383 63.7859 31.2283 63.9321C30.7182 64.0784 30.1737 64.0477 29.6832 63.8452C29.1928 63.6427 28.7854 63.2801 28.5271 62.8166C28.2689 62.353 28.1752 61.8158 28.2611 61.2922L31.6342 40.19L48.9485 40.1848L32.4924 63.0397Z" fill="#1882FF"/>
<path d="M68.2172 35.2172C68.2172 32.8993 65.0515 30.9574 60.7709 30.4103C59.0805 30.1925 61.1002 30.247 26.1321 30.2651C24.1387 30.3262 22.1592 30.6195 20.2337 31.1389C16.224 32.2012 12.3017 33.5699 8.50159 35.2328C12.2407 36.877 16.1005 38.2318 20.047 39.2852C22.0337 39.8242 24.0771 40.127 26.1347 40.1875C60.9498 40.1719 59.039 40.2419 60.7787 40.0164C65.0593 39.4745 68.2198 37.5273 68.2172 35.2172Z" fill="#1882FF"/>
<path d="M42.5236 49.1141L45.2874 49.1141C45.8137 49.1128 46.3181 48.9032 46.6903 48.531C47.0625 48.1588 47.2721 47.6544 47.2734 47.1281C47.2725 46.618 47.0741 46.1281 46.7198 45.7612C46.3654 45.3943 45.8827 45.1789 45.373 45.1602L42.5236 49.1141Z" fill="#1882FF"/>
<path d="M45.3577 25.2794C45.868 25.2571 46.3501 25.0391 46.704 24.6708C47.0579 24.3024 47.2563 23.8119 47.2582 23.3011C47.2536 22.7766 47.0411 22.2753 46.6673 21.9074C46.2935 21.5394 45.7889 21.3348 45.2644 21.3385L42.5083 21.341L45.3577 25.2794Z" fill="#1882FF"/>
</svg>
