<svg width="36" height="36" viewBox="0 0 36 36" fill="none" xmlns="http://www.w3.org/2000/svg">
<circle cx="18" cy="18" r="18" fill="white"/>
<path d="M27.0911 7H12.9911C12.8217 7.00208 12.6599 7.07027 12.5401 7.19004C12.4204 7.3098 12.3522 7.47164 12.3501 7.641V18.477C12.7166 18.7268 13.0165 19.0624 13.2237 19.4545C13.431 19.8466 13.5392 20.2835 13.5391 20.727C13.5414 20.9152 13.5206 21.1029 13.4771 21.286C13.8441 21.6358 14.1356 22.0571 14.3336 22.5238C14.5315 22.9906 14.6318 23.493 14.6281 24C14.6294 24.5096 14.5284 25.0143 14.3312 25.4843C14.134 25.9542 13.8446 26.3798 13.4801 26.736C13.1528 27.053 12.7706 27.3078 12.3521 27.488V27.53H17.4831V23.853C17.3846 23.8566 17.2864 23.8404 17.1944 23.8052C17.1023 23.77 17.0183 23.7167 16.9474 23.6483C16.8764 23.5799 16.82 23.4979 16.7814 23.4072C16.7429 23.3166 16.723 23.219 16.723 23.1205C16.723 23.022 16.7429 22.9244 16.7814 22.8338C16.82 22.7431 16.8764 22.6611 16.9474 22.5927C17.0183 22.5243 17.1023 22.471 17.1944 22.4358C17.2864 22.4006 17.3846 22.3844 17.4831 22.388H22.6151C22.7136 22.3844 22.8118 22.4006 22.9038 22.4358C22.9959 22.471 23.0799 22.5243 23.1508 22.5927C23.2218 22.6611 23.2782 22.7431 23.3168 22.8338C23.3553 22.9244 23.3752 23.022 23.3752 23.1205C23.3752 23.219 23.3553 23.3166 23.3168 23.4072C23.2782 23.4979 23.2218 23.5799 23.1508 23.6483C23.0799 23.7167 22.9959 23.77 22.9038 23.8052C22.8118 23.8404 22.7136 23.8566 22.6151 23.853V27.535H27.7451V7.66C27.7455 7.57372 27.7289 7.48821 27.6962 7.40835C27.6636 7.32849 27.6155 7.25584 27.5548 7.19455C27.4941 7.13326 27.4219 7.08454 27.3423 7.05116C27.2627 7.01778 27.1774 7.00039 27.0911 7ZM16.7501 19.822C16.7501 19.9192 16.7116 20.0124 16.643 20.0812C16.5743 20.15 16.4813 20.1887 16.3841 20.189H14.9181C14.8212 20.1885 14.7284 20.1497 14.6599 20.0812C14.5914 20.0127 14.5526 19.9199 14.5521 19.823V18.357C14.5526 18.2601 14.5914 18.1673 14.6599 18.0988C14.7284 18.0303 14.8212 17.9915 14.9181 17.991H16.3841C16.481 17.9915 16.5738 18.0303 16.6423 18.0988C16.7108 18.1673 16.7496 18.2601 16.7501 18.357V19.822ZM14.5501 13.96C14.5506 13.8631 14.5894 13.7703 14.6579 13.7018C14.7264 13.6333 14.8192 13.5945 14.9161 13.594H16.3821C16.479 13.5945 16.5718 13.6333 16.6403 13.7018C16.7088 13.7703 16.7476 13.8631 16.7481 13.96V15.425C16.7476 15.5219 16.7088 15.6147 16.6403 15.6832C16.5718 15.7517 16.479 15.7905 16.3821 15.791H14.9181C14.8212 15.7905 14.7284 15.7517 14.6599 15.6832C14.5914 15.6147 14.5526 15.5219 14.5521 15.425L14.5501 13.96ZM16.7501 11.03C16.7496 11.1269 16.7108 11.2197 16.6423 11.2882C16.5738 11.3567 16.481 11.3955 16.3841 11.396H14.9181C14.8212 11.3955 14.7284 11.3567 14.6599 11.2882C14.5914 11.2197 14.5526 11.1269 14.5521 11.03V9.564C14.5529 9.46684 14.5922 9.37396 14.6614 9.30572C14.7305 9.23749 14.8239 9.19947 14.9211 9.2H16.3871C16.484 9.20053 16.5768 9.23925 16.6453 9.30778C16.7138 9.3763 16.7526 9.46909 16.7531 9.566L16.7501 11.03ZM21.1501 19.822C21.1496 19.9189 21.1108 20.0117 21.0423 20.0802C20.9738 20.1487 20.881 20.1875 20.7841 20.188H19.3161C19.2192 20.1875 19.1264 20.1487 19.0579 20.0802C18.9894 20.0117 18.9506 19.9189 18.9501 19.822V18.357C18.9506 18.2601 18.9894 18.1673 19.0579 18.0988C19.1264 18.0303 19.2192 17.9915 19.3161 17.991H20.7821C20.879 17.9915 20.9718 18.0303 21.0403 18.0988C21.1088 18.1673 21.1476 18.2601 21.1481 18.357L21.1501 19.822ZM21.1501 15.422C21.1496 15.5189 21.1108 15.6117 21.0423 15.6802C20.9738 15.7487 20.881 15.7875 20.7841 15.788H19.3161C19.2192 15.7875 19.1264 15.7487 19.0579 15.6802C18.9894 15.6117 18.9506 15.5189 18.9501 15.422V13.961C18.9506 13.8641 18.9894 13.7713 19.0579 13.7028C19.1264 13.6343 19.2192 13.5955 19.3161 13.595H20.7821C20.879 13.5955 20.9718 13.6343 21.0403 13.7028C21.1088 13.7713 21.1476 13.8641 21.1481 13.961L21.1501 15.422ZM21.1501 11.022C21.1496 11.1189 21.1108 11.2117 21.0423 11.2802C20.9738 11.3487 20.881 11.3875 20.7841 11.388H19.3161C19.2192 11.3875 19.1264 11.3487 19.0579 11.2802C18.9894 11.2117 18.9506 11.1189 18.9501 11.022V9.565C18.9509 9.46827 18.9897 9.37573 19.0582 9.30742C19.1267 9.23911 19.2194 9.20052 19.3161 9.2H20.7821C20.879 9.20053 20.9718 9.23925 21.0403 9.30778C21.1088 9.3763 21.1476 9.46909 21.1481 9.566L21.1501 11.022ZM25.5501 19.815C25.5496 19.9119 25.5108 20.0047 25.4423 20.0732C25.3738 20.1417 25.281 20.1805 25.1841 20.181H23.7141C23.6172 20.1805 23.5244 20.1417 23.4559 20.0732C23.3874 20.0047 23.3486 19.9119 23.3481 19.815V18.357C23.3486 18.2601 23.3874 18.1673 23.4559 18.0988C23.5244 18.0303 23.6172 17.9915 23.7141 17.991H25.1801C25.277 17.9915 25.3698 18.0303 25.4383 18.0988C25.5068 18.1673 25.5456 18.2601 25.5461 18.357L25.5501 19.815ZM25.5501 15.415C25.5496 15.5119 25.5108 15.6047 25.4423 15.6732C25.3738 15.7417 25.281 15.7805 25.1841 15.781H23.7141C23.6172 15.7805 23.5244 15.7417 23.4559 15.6732C23.3874 15.6047 23.3486 15.5119 23.3481 15.415V13.961C23.3486 13.8641 23.3874 13.7713 23.4559 13.7028C23.5244 13.6343 23.6172 13.5955 23.7141 13.595H25.1801C25.277 13.5955 25.3698 13.6343 25.4383 13.7028C25.5068 13.7713 25.5456 13.8641 25.5461 13.961L25.5501 15.415ZM25.5501 11.015C25.5496 11.1119 25.5108 11.2047 25.4423 11.2732C25.3738 11.3417 25.281 11.3805 25.1841 11.381H23.7141C23.6172 11.3805 23.5244 11.3417 23.4559 11.2732C23.3874 11.2047 23.3486 11.1119 23.3481 11.015V9.565C23.3489 9.46827 23.3877 9.37573 23.4562 9.30742C23.5247 9.23911 23.6174 9.20052 23.7141 9.2H25.1801C25.277 9.20053 25.3698 9.23925 25.4383 9.30778C25.5068 9.3763 25.5456 9.46909 25.5461 9.566L25.5501 11.015Z" fill="#1882FF"/>
<path opacity="0.8" d="M8.08694 26.678C8.45578 27.0509 8.89861 27.3425 9.38694 27.534H10.2619V24.129L9.32994 23.2C9.22796 23.1 9.16988 22.9636 9.16848 22.8208C9.16707 22.678 9.22245 22.5405 9.32244 22.4385C9.42242 22.3365 9.55883 22.2784 9.70163 22.277C9.84444 22.2756 9.98196 22.331 10.0839 22.431L10.0919 22.439L10.2629 22.594V20.618C10.2629 20.4737 10.3203 20.3354 10.4223 20.2333C10.5243 20.1313 10.6627 20.074 10.8069 20.074C10.9512 20.074 11.0896 20.1313 11.1916 20.2333C11.2936 20.3354 11.3509 20.4737 11.3509 20.618V23.663L11.5219 23.508C11.6181 23.4072 11.7504 23.3487 11.8897 23.3453C12.029 23.3419 12.164 23.394 12.2649 23.49L12.2829 23.508C12.3859 23.6089 12.4446 23.7466 12.4461 23.8908C12.4476 24.035 12.3918 24.1739 12.2909 24.277L12.2829 24.285L11.3509 25.217V27.535H12.2509C12.7083 27.3533 13.1256 27.0836 13.4789 26.741C13.8442 26.3843 14.1342 25.9579 14.3316 25.4871C14.5289 25.0162 14.6297 24.5105 14.6279 24C14.6319 23.4931 14.5319 22.9908 14.3343 22.5241C14.1367 22.0573 13.8456 21.636 13.4789 21.286C13.5224 21.1029 13.5432 20.9152 13.5409 20.727C13.5409 20.0038 13.2536 19.3101 12.7422 18.7987C12.2308 18.2873 11.5372 18 10.8139 18C10.0907 18 9.39707 18.2873 8.88566 18.7987C8.37425 19.3101 8.08694 20.0038 8.08694 20.727C8.08466 20.9152 8.10548 21.1029 8.14894 21.286C7.4257 21.9928 7.01286 22.958 7.00123 23.9692C6.9896 24.9804 7.38014 25.9548 8.08694 26.678Z" fill="#1882FF"/>
<path opacity="0.16" d="M10.2619 27.534V24.129L9.32994 23.197C9.27945 23.1475 9.2392 23.0885 9.2115 23.0234C9.1838 22.9584 9.16918 22.8885 9.16848 22.8178C9.16779 22.7471 9.18102 22.6769 9.20744 22.6113C9.23386 22.5457 9.27294 22.486 9.32244 22.4355C9.37195 22.385 9.43092 22.3447 9.49598 22.317C9.56105 22.2893 9.63093 22.2747 9.70164 22.274C9.77235 22.2733 9.84251 22.2866 9.90811 22.313C9.9737 22.3394 10.0335 22.3785 10.0839 22.428L10.0919 22.436L10.2629 22.591V20.618C10.2629 20.5465 10.277 20.4758 10.3044 20.4098C10.3317 20.3438 10.3718 20.2838 10.4223 20.2333C10.4728 20.1828 10.5328 20.1427 10.5988 20.1154C10.6648 20.088 10.7355 20.074 10.8069 20.074C10.8784 20.074 10.9491 20.088 11.0151 20.1154C11.0811 20.1427 11.1411 20.1828 11.1916 20.2333C11.2421 20.2838 11.2822 20.3438 11.3095 20.4098C11.3369 20.4758 11.3509 20.5465 11.3509 20.618V23.663L11.5219 23.508C11.6181 23.4072 11.7504 23.3487 11.8897 23.3453C12.029 23.3419 12.164 23.3939 12.2649 23.49L12.2829 23.508C12.3859 23.6089 12.4446 23.7466 12.4461 23.8908C12.4476 24.035 12.3918 24.1739 12.2909 24.277L12.2829 24.285L11.3509 25.217V27.535L10.2619 27.534Z" fill="#1882FF"/>
<g opacity="0.08">
<path opacity="0.08" d="M15.2188 17.991H16.0848C16.1723 17.9909 16.259 18.008 16.3399 18.0414C16.4209 18.0748 16.4944 18.1239 16.5563 18.1857C16.6183 18.2476 16.6674 18.3211 16.701 18.4019C16.7345 18.4828 16.7518 18.5695 16.7518 18.657V19.523C16.7518 19.6997 16.6816 19.8691 16.5567 19.994C16.4318 20.1189 16.2624 20.189 16.0858 20.189H15.2178C15.0411 20.189 14.8717 20.1189 14.7468 19.994C14.6219 19.8691 14.5518 19.6997 14.5518 19.523V18.658C14.5518 18.4811 14.622 18.3115 14.7471 18.1864C14.8722 18.0613 15.0419 17.991 15.2188 17.991Z" fill="#1882FF"/>
<path opacity="0.08" d="M15.2158 13.594H16.0808C16.1685 13.5936 16.2554 13.6105 16.3366 13.6438C16.4177 13.6771 16.4915 13.7261 16.5537 13.788C16.6158 13.8499 16.6652 13.9234 16.6988 14.0044C16.7325 14.0854 16.7498 14.1723 16.7498 14.26V15.126C16.7498 15.3026 16.6796 15.472 16.5547 15.5969C16.4298 15.7218 16.2604 15.792 16.0838 15.792H15.2168C15.0399 15.792 14.8703 15.7217 14.7452 15.5966C14.6201 15.4716 14.5498 15.3019 14.5498 15.125V14.26C14.5498 14.0834 14.62 13.914 14.7449 13.7891C14.8698 13.6642 15.0392 13.594 15.2158 13.594Z" fill="#1882FF"/>
<path opacity="0.08" d="M16.7508 11.03C16.7502 11.1269 16.7115 11.2197 16.643 11.2882C16.5745 11.3568 16.4817 11.3955 16.3848 11.396H14.9178C14.8208 11.3955 14.7281 11.3568 14.6595 11.2882C14.591 11.2197 14.5523 11.1269 14.5518 11.03V9.56401C14.5525 9.46737 14.5914 9.37494 14.6599 9.30679C14.7285 9.23864 14.8211 9.20027 14.9178 9.20001H16.3838C16.4807 9.20054 16.5735 9.23927 16.642 9.30779C16.7105 9.37632 16.7492 9.46911 16.7498 9.56601L16.7508 11.03Z" fill="#1882FF"/>
<path opacity="0.08" d="M20.4827 17.991H19.6157C19.2479 17.991 18.9497 18.2892 18.9497 18.657V19.523C18.9497 19.8908 19.2479 20.189 19.6157 20.189H20.4827C20.8505 20.189 21.1487 19.8908 21.1487 19.523V18.657C21.1487 18.2892 20.8505 17.991 20.4827 17.991Z" fill="#1882FF"/>
<path opacity="0.08" d="M20.4827 13.595H19.6157C19.2479 13.595 18.9497 13.8932 18.9497 14.261V15.127C18.9497 15.4949 19.2479 15.793 19.6157 15.793H20.4827C20.8505 15.793 21.1487 15.4949 21.1487 15.127V14.261C21.1487 13.8932 20.8505 13.595 20.4827 13.595Z" fill="#1882FF"/>
<path opacity="0.08" d="M19.6157 9.20001H20.4827C20.5703 9.19988 20.657 9.21701 20.7379 9.25042C20.8188 9.28383 20.8923 9.33287 20.9543 9.39473C21.0162 9.45658 21.0654 9.53005 21.0989 9.61091C21.1324 9.69178 21.1497 9.77847 21.1497 9.86601V10.733C21.1497 10.9089 21.0799 11.0775 20.9555 11.2018C20.8312 11.3262 20.6625 11.396 20.4867 11.396H19.6157C19.4391 11.396 19.2697 11.3258 19.1448 11.2009C19.0199 11.076 18.9497 10.9066 18.9497 10.73V9.86601C18.9497 9.68938 19.0199 9.51998 19.1448 9.39508C19.2697 9.27018 19.4391 9.20001 19.6157 9.20001Z" fill="#1882FF"/>
<path opacity="0.08" d="M24.8807 17.991H24.0137C23.6458 17.991 23.3477 18.2892 23.3477 18.657V19.523C23.3477 19.8908 23.6458 20.189 24.0137 20.189H24.8807C25.2485 20.189 25.5467 19.8908 25.5467 19.523V18.657C25.5467 18.2892 25.2485 17.991 24.8807 17.991Z" fill="#1882FF"/>
<path opacity="0.08" d="M24.8807 13.595H24.0137C23.6458 13.595 23.3477 13.8932 23.3477 14.261V15.127C23.3477 15.4949 23.6458 15.793 24.0137 15.793H24.8807C25.2485 15.793 25.5467 15.4949 25.5467 15.127V14.261C25.5467 13.8932 25.2485 13.595 24.8807 13.595Z" fill="#1882FF"/>
<path opacity="0.08" d="M24.0137 9.20001H24.8807C24.9682 9.19988 25.0549 9.21701 25.1358 9.25042C25.2167 9.28383 25.2903 9.33287 25.3522 9.39473C25.4142 9.45658 25.4633 9.53005 25.4969 9.61091C25.5304 9.69178 25.5477 9.77847 25.5477 9.86601V10.734C25.5477 10.9099 25.4778 11.0785 25.3535 11.2028C25.2291 11.3272 25.0605 11.397 24.8847 11.397H24.0137C23.837 11.397 23.6676 11.3268 23.5427 11.2019C23.4178 11.077 23.3477 10.9076 23.3477 10.731V9.86601C23.3477 9.68938 23.4178 9.51998 23.5427 9.39508C23.6676 9.27018 23.837 9.20001 24.0137 9.20001Z" fill="#1882FF"/>
</g>
<path opacity="0.88" d="M7.73398 27.534C7.53957 27.534 7.35313 27.6112 7.21567 27.7487C7.0782 27.8862 7.00098 28.0726 7.00098 28.267C7.00098 28.4614 7.0782 28.6479 7.21567 28.7853C7.35313 28.9228 7.53957 29 7.73398 29H28.258C28.3556 29.0001 28.4523 28.981 28.5425 28.9437C28.6327 28.9064 28.7146 28.8517 28.7837 28.7827C28.8527 28.7137 28.9074 28.6317 28.9447 28.5415C28.982 28.4513 29.0011 28.3546 29.001 28.257C29.0006 28.1605 28.981 28.065 28.9433 27.9761C28.9055 27.8873 28.8505 27.8068 28.7813 27.7395C28.7121 27.6722 28.6302 27.6193 28.5403 27.584C28.4505 27.5488 28.3545 27.5318 28.258 27.534H7.73398Z" fill="#1882FF"/>
</svg>
