<?xml version="1.0" encoding="utf-8"?>
<!-- Generator: Adobe Illustrator 23.0.0, SVG Export Plug-In . SVG Version: 6.00 Build 0)  -->
<svg version="1.1" id="Layer_1" xmlns="http://www.w3.org/2000/svg" xmlns:xlink="http://www.w3.org/1999/xlink" x="0px" y="0px"
	 viewBox="0 0 11.6 17.3" style="enable-background:new 0 0 11.6 17.3;" xml:space="preserve">
<style type="text/css">
	.st0{fill:#4C4C4C;}
	.st1{opacity:0.5;fill:#4C4C4C;enable-background:new    ;}
</style>
<path class="st0" d="M5.8,7.9c-0.3,0-0.5,0-0.8-0.1C4.8,7.7,4.5,7.5,4.3,7.3C4.1,7.1,4,6.9,3.9,6.6C3.8,6.4,3.7,6.1,3.8,5.8
	c0-0.3,0-0.5,0.1-0.8C4,4.8,4.1,4.5,4.3,4.3C4.5,4.1,4.8,4,5,3.9c0.3-0.1,0.5-0.1,0.8-0.1c0.3,0,0.5,0,0.8,0.1
	C6.9,4,7.1,4.1,7.3,4.3C7.5,4.5,7.7,4.8,7.8,5c0.1,0.3,0.1,0.5,0.1,0.8c0,0.3,0,0.5-0.1,0.8C7.7,6.9,7.5,7.1,7.3,7.3
	C7.1,7.5,6.9,7.7,6.6,7.8C6.4,7.9,6.1,7.9,5.8,7.9z M5.8,0C5.1,0,4.3,0.1,3.6,0.4C2.9,0.7,2.2,1.1,1.7,1.7c-0.5,0.5-1,1.2-1.3,1.9
	C0.1,4.3,0,5.1,0,5.8c0.3,2.6,1.3,5,2.9,7.1c0.9,1.3,1.9,2.6,2.9,3.8c1-1.2,2-2.5,2.9-3.8c1.6-2,2.6-4.5,2.9-7.1
	c0-0.8-0.1-1.5-0.4-2.2c-0.3-0.7-0.7-1.4-1.3-1.9c-0.5-0.5-1.2-1-1.9-1.3C7.3,0.1,6.6,0,5.8,0L5.8,0z"/>
<ellipse class="st1" cx="5.8" cy="16.6" rx="1.7" ry="0.7"/>
</svg>
