<svg xmlns="http://www.w3.org/2000/svg" xmlns:xlink="http://www.w3.org/1999/xlink" width="24" height="24" viewBox="0 0 24 24">
  <defs>
    <clipPath id="clip-path">
      <rect id="Rectangle_4442" data-name="Rectangle 4442" width="24" height="24" fill="none"/>
    </clipPath>
  </defs>
  <g id="logout-mono" clip-path="url(#clip-path)">
    <g id="Group_14257" data-name="Group 14257" transform="translate(2 2)">
      <path id="Union_11" data-name="Union 11" d="M7.168,17.5a.833.833,0,0,1-.216-.029.833.833,0,0,1-.216.029H2.5A2.505,2.505,0,0,1,0,15V2.5A2.49,2.49,0,0,1,.4,1.151.833.833,0,0,1,1.167,0h8.959a2.5,2.5,0,0,1,2.5,2.5V5a.834.834,0,0,1-1.668,0V2.5a.835.835,0,0,0-.833-.834H6.789l-.054,0H2.5a.835.835,0,0,0-.834.833V15a.835.835,0,0,0,.834.834H6.735a.835.835,0,0,1,.216.028.835.835,0,0,1,.216-.028h2.916A.835.835,0,0,0,10.918,15V11.665a.833.833,0,0,1,1.667,0V15a2.5,2.5,0,0,1-2.5,2.5Z" transform="translate(1.666 0)" opacity="0.56"/>
      <path id="Path_12274" data-name="Path 12274" d="M271.337,189.6a.833.833,0,0,1-.514-.77v-2.5H267.49a.833.833,0,1,1,0-1.666h3.334v-2.5a.833.833,0,0,1,1.422-.589l3.334,3.334a.834.834,0,0,1,0,1.179l-3.334,3.334A.837.837,0,0,1,271.337,189.6Zm0,0" transform="translate(-255.824 -177.167)" opacity="0.88"/>
      <path id="Path_12273" data-name="Path 12273" d="M135.2,129.747l-5.014-1.67a1.708,1.708,0,0,0-.518-.078A1.668,1.668,0,0,0,128,129.666v15a1.684,1.684,0,0,0,1.135,1.585l5.019,1.672a1.721,1.721,0,0,0,.512.076,1.668,1.668,0,0,0,1.666-1.666v-15A1.679,1.679,0,0,0,135.2,129.747Zm0,0" transform="translate(-128 -128)"/>
    </g>
  </g>
</svg>
