<svg width="20" height="20" viewBox="0 0 20 20" fill="none" xmlns="http://www.w3.org/2000/svg">
<path d="M2.34918 6.94417V17.65C2.35266 18.051 2.51345 18.4347 2.79695 18.7183C3.08045 19.002 3.46399 19.163 3.86502 19.1667H16.1325C16.5334 19.163 16.9168 19.0021 17.2003 18.7186C17.4838 18.4351 17.6447 18.0517 17.6483 17.6508V6.94417H2.34918ZM14.0325 11.4533C13.66 11.87 13.2875 12.24 12.915 12.6542C12.8148 12.7756 12.7031 12.8872 12.5817 12.9875C12.4652 13.1273 12.4057 13.3058 12.415 13.4875C12.4983 13.9875 12.5392 14.44 12.5817 14.9367C12.6225 15.1442 12.6225 15.3533 12.665 15.52C12.6831 15.6106 12.6772 15.7044 12.648 15.7921C12.6188 15.8798 12.5672 15.9583 12.4983 16.02C12.4136 16.0782 12.3149 16.1128 12.2123 16.1201C12.1098 16.1275 12.0072 16.1073 11.915 16.0617C11.3317 15.7717 10.7975 15.4783 10.2592 15.1508C10.1742 15.0898 10.0722 15.057 9.96752 15.057C9.86286 15.057 9.76085 15.0898 9.67585 15.1508C9.09251 15.4408 8.51668 15.7717 7.93668 16.0617C7.85984 16.103 7.77394 16.1247 7.68668 16.1247C7.59942 16.1247 7.51352 16.103 7.43668 16.0617C7.35457 16.0216 7.28899 15.9542 7.25127 15.871C7.21354 15.7878 7.20603 15.694 7.23001 15.6058C7.27829 15.3867 7.30618 15.1635 7.31335 14.9392C7.39668 14.4392 7.48001 13.9458 7.52085 13.4483C7.53471 13.3644 7.52665 13.2784 7.49745 13.1985C7.46825 13.1186 7.41889 13.0477 7.35418 12.9925L5.98752 11.5017C5.93846 11.4571 5.89926 11.4027 5.87244 11.3421C5.84562 11.2815 5.83177 11.2159 5.83177 11.1496C5.83177 11.0833 5.84562 11.0177 5.87244 10.9571C5.89926 10.8965 5.93846 10.8421 5.98752 10.7975C6.0239 10.7569 6.0687 10.7248 6.11879 10.7034C6.16888 10.6819 6.22305 10.6717 6.27752 10.6733C6.94002 10.5492 7.56085 10.3833 8.22335 10.2175C8.31475 10.2002 8.40053 10.1608 8.47316 10.1027C8.5458 10.0446 8.60309 9.96955 8.64002 9.88417L9.50918 8.145C9.56121 8.03197 9.65449 7.94311 9.76992 7.89663C9.88534 7.85015 10.0142 7.84957 10.13 7.895C10.1708 7.895 10.1708 7.93583 10.2133 7.93583C10.2901 7.98492 10.3486 8.05781 10.38 8.14333C10.67 8.68167 11.0008 9.26084 11.2908 9.84084C11.3331 9.92246 11.392 9.99431 11.4638 10.0517C11.5356 10.1092 11.6186 10.1509 11.7075 10.1742C12.37 10.2983 13.0317 10.4642 13.695 10.5908C13.7617 10.6044 13.8249 10.6318 13.8805 10.6711C13.9361 10.7104 13.9829 10.7609 14.0179 10.8193C14.053 10.8776 14.0755 10.9427 14.084 11.0102C14.0925 11.0778 14.0869 11.1464 14.0675 11.2117C14.0808 11.2519 14.0845 11.2947 14.0784 11.3366C14.0723 11.3785 14.0566 11.4185 14.0325 11.4533Z" fill="#1882FF"/>
<path opacity="0.8" d="M6.94334 2.67084C6.94334 2.48695 7.08223 2.395 7.36001 2.395H12.6433C12.9211 2.395 13.06 2.48695 13.06 2.67084V5.1525C13.06 5.29 13.0142 5.3825 12.83 5.42834C12.7512 5.44673 12.6694 5.44806 12.5901 5.43225C12.5108 5.41644 12.4357 5.38385 12.37 5.33667L10.2975 3.95834C10.2329 3.90907 10.1578 3.8752 10.0781 3.85931C9.99839 3.84343 9.91611 3.84595 9.83751 3.86667C9.80193 3.86729 9.76693 3.87583 9.73507 3.89169C9.70321 3.90755 9.67529 3.93032 9.65334 3.95834C8.96418 4.41834 8.32001 4.875 7.63251 5.33667C7.57521 5.38373 7.50759 5.41657 7.43518 5.43251C7.36276 5.44844 7.2876 5.44701 7.21584 5.42834C7.14838 5.41667 7.08441 5.38993 7.02872 5.35011C6.97302 5.31029 6.92703 5.25841 6.89418 5.19834V5.10667C6.94334 4.23334 6.94334 3.4525 6.94334 2.67084ZM17.6483 6.94417C18.0493 6.94069 18.4328 6.77987 18.7164 6.49635C18.9999 6.21282 19.1607 5.82928 19.1642 5.42834V2.34917C19.1714 2.15204 19.1386 1.95549 19.0679 1.77135C18.9971 1.5872 18.8899 1.41927 18.7525 1.27766C18.6152 1.13605 18.4507 1.02369 18.2688 0.947328C18.0869 0.870969 17.8914 0.832195 17.6942 0.833338H2.34918C1.9483 0.837033 1.56488 0.997922 1.28141 1.2814C0.997928 1.56488 0.837038 1.94829 0.833344 2.34917V5.42834C0.836825 5.82928 0.997646 6.21282 1.28117 6.49635C1.56469 6.77987 1.94823 6.94069 2.34918 6.94417H17.6483Z" fill="#1882FF"/>
<path opacity="0.16" d="M6.94336 2.67168C6.94336 2.48779 7.08225 2.39584 7.36002 2.39584H12.6434C12.9211 2.39584 13.06 2.48779 13.06 2.67168V5.15251C13.06 5.29001 13.0142 5.38251 12.83 5.42834C12.7512 5.44673 12.6694 5.44807 12.5901 5.43226C12.5108 5.41645 12.4357 5.38386 12.37 5.33668L10.3034 3.95834C10.2387 3.90907 10.1637 3.8752 10.084 3.85932C10.0042 3.84343 9.92195 3.84595 9.84336 3.86668C9.80777 3.86729 9.77278 3.87584 9.74092 3.8917C9.70906 3.90756 9.68113 3.93032 9.65919 3.95834C8.97002 4.41834 8.32586 4.87501 7.63836 5.33668C7.58106 5.38374 7.51344 5.41658 7.44102 5.43251C7.36861 5.44844 7.29345 5.44701 7.22169 5.42834C7.15422 5.41668 7.09026 5.38994 7.03456 5.35011C6.97887 5.31029 6.93288 5.25841 6.90002 5.19834V5.10668C6.94336 4.23334 6.94336 3.45251 6.94336 2.67168Z" fill="#1882FF"/>
<path opacity="0.08" d="M14.0325 11.4533C13.66 11.87 13.2875 12.24 12.915 12.6542C12.8147 12.7756 12.7031 12.8872 12.5817 12.9875C12.4652 13.1273 12.4057 13.3058 12.415 13.4875C12.4983 13.9875 12.5392 14.44 12.5817 14.9367C12.6225 15.1442 12.6225 15.3533 12.665 15.52C12.6831 15.6106 12.6772 15.7044 12.648 15.7921C12.6188 15.8798 12.5672 15.9583 12.4983 16.02C12.4136 16.0782 12.3149 16.1128 12.2123 16.1201C12.1098 16.1275 12.0071 16.1073 11.915 16.0617C11.3317 15.7717 10.7975 15.4783 10.2592 15.1508C10.1742 15.0898 10.0722 15.0569 9.9675 15.0569C9.86285 15.0569 9.76084 15.0898 9.67584 15.1508C9.0925 15.4408 8.51667 15.7717 7.93667 16.0617C7.85983 16.103 7.77393 16.1247 7.68667 16.1247C7.59941 16.1247 7.51351 16.103 7.43667 16.0617C7.35456 16.0216 7.28898 15.9542 7.25126 15.871C7.21353 15.7878 7.20602 15.694 7.23 15.6058C7.27828 15.3867 7.30617 15.1635 7.31334 14.9392C7.39667 14.4392 7.48 13.9458 7.52084 13.4483C7.5347 13.3644 7.52664 13.2784 7.49744 13.1985C7.46824 13.1186 7.41888 13.0477 7.35417 12.9925L5.9875 11.5017C5.93845 11.4571 5.89925 11.4027 5.87243 11.3421C5.84561 11.2815 5.83176 11.2159 5.83176 11.1496C5.83176 11.0833 5.84561 11.0177 5.87243 10.9571C5.89925 10.8965 5.93845 10.8421 5.9875 10.7975C6.02389 10.7569 6.06869 10.7248 6.11878 10.7034C6.16887 10.6819 6.22304 10.6717 6.2775 10.6733C6.94 10.5492 7.56084 10.3833 8.22334 10.2175C8.31474 10.2002 8.40052 10.1608 8.47315 10.1027C8.54579 10.0446 8.60308 9.96955 8.64 9.88417L9.5225 8.14083C9.57453 8.0278 9.66782 7.93895 9.78324 7.89247C9.89867 7.84599 10.0275 7.8454 10.1433 7.89083C10.1842 7.89083 10.1842 7.93167 10.2267 7.93167C10.3034 7.98075 10.362 8.05364 10.3933 8.13917C10.6833 8.6775 11.0142 9.25667 11.3042 9.83667C11.3464 9.9183 11.4053 9.99014 11.4771 10.0476C11.5489 10.105 11.6319 10.1467 11.7208 10.17C12.3833 10.2942 13.045 10.46 13.7083 10.5867C13.7751 10.6003 13.8382 10.6276 13.8938 10.6669C13.9494 10.7062 13.9962 10.7567 14.0312 10.8151C14.0663 10.8735 14.0888 10.9385 14.0973 11.0061C14.1059 11.0736 14.1002 11.1422 14.0808 11.2075C14.0929 11.2494 14.0948 11.2935 14.0864 11.3363C14.078 11.379 14.0595 11.4191 14.0325 11.4533Z" fill="#1882FF"/>
</svg>
