<svg width="22" height="22" viewBox="0 0 22 22" fill="none" xmlns="http://www.w3.org/2000/svg">
<path d="M1.81897 7.33299V20.18C1.82314 20.6612 2.0161 21.1216 2.3563 21.462C2.6965 21.8024 3.15674 21.9956 3.63797 22H18.359C18.84 21.9956 19.3001 21.8025 19.6403 21.4623C19.9805 21.1221 20.1735 20.662 20.178 20.181V7.33299H1.81897ZM15.839 12.744C15.392 13.244 14.945 13.688 14.498 14.185C14.3777 14.3307 14.2437 14.4647 14.098 14.585C13.9582 14.7527 13.8868 14.967 13.898 15.185C13.998 15.785 14.047 16.328 14.098 16.924C14.147 17.173 14.147 17.424 14.198 17.624C14.2197 17.7328 14.2126 17.8453 14.1775 17.9505C14.1425 18.0557 14.0806 18.15 13.998 18.224C13.8963 18.2939 13.7778 18.3354 13.6548 18.3442C13.5317 18.3529 13.4085 18.3287 13.298 18.274C12.598 17.926 11.957 17.574 11.311 17.181C11.209 17.1077 11.0866 17.0683 10.961 17.0683C10.8354 17.0683 10.713 17.1077 10.611 17.181C9.91097 17.529 9.21997 17.926 8.52397 18.274C8.43176 18.3236 8.32868 18.3496 8.22397 18.3496C8.11926 18.3496 8.01618 18.3236 7.92397 18.274C7.82543 18.2259 7.74674 18.145 7.70147 18.0451C7.6562 17.9453 7.64718 17.8328 7.67597 17.727C7.73389 17.464 7.76737 17.1962 7.77597 16.927C7.87597 16.327 7.97597 15.735 8.02497 15.138C8.0416 15.0373 8.03193 14.934 7.99689 14.8382C7.96185 14.7424 7.90262 14.6572 7.82497 14.591L6.18497 12.802C6.1261 12.7485 6.07907 12.6832 6.04688 12.6105C6.0147 12.5377 5.99807 12.4591 5.99807 12.3795C5.99807 12.2999 6.0147 12.2213 6.04688 12.1485C6.07907 12.0757 6.1261 12.0105 6.18497 11.957C6.22863 11.9083 6.28239 11.8698 6.3425 11.844C6.40261 11.8183 6.46761 11.806 6.53297 11.808C7.32797 11.659 8.07297 11.46 8.86797 11.261C8.97765 11.2403 9.08058 11.1929 9.16775 11.1232C9.25491 11.0535 9.32366 10.9634 9.36797 10.861L10.411 8.77399C10.4734 8.63836 10.5853 8.53173 10.7239 8.47595C10.8624 8.42017 11.017 8.41947 11.156 8.47399C11.205 8.47399 11.205 8.52299 11.256 8.52299C11.3481 8.5819 11.4183 8.66936 11.456 8.77199C11.804 9.41799 12.201 10.113 12.549 10.809C12.5997 10.9069 12.6704 10.9932 12.7565 11.0621C12.8426 11.131 12.9423 11.181 13.049 11.209C13.844 11.358 14.638 11.557 15.434 11.709C15.514 11.7253 15.5898 11.7581 15.6565 11.8053C15.7233 11.8525 15.7794 11.913 15.8215 11.9831C15.8635 12.0532 15.8905 12.1312 15.9007 12.2123C15.911 12.2934 15.9043 12.3757 15.881 12.454C15.8969 12.5023 15.9013 12.5536 15.894 12.6039C15.8868 12.6542 15.8679 12.7022 15.839 12.744Z" fill="white"/>
<path opacity="0.8" d="M7.332 2.205C7.332 1.98433 7.49867 1.874 7.832 1.874H14.172C14.5053 1.874 14.672 1.98433 14.672 2.205V5.183C14.672 5.348 14.617 5.459 14.396 5.514C14.3015 5.53607 14.2033 5.53767 14.1081 5.5187C14.0129 5.49972 13.9229 5.46062 13.844 5.404L11.357 3.75C11.2794 3.69087 11.1894 3.65023 11.0937 3.63117C10.9981 3.61211 10.8993 3.61513 10.805 3.64C10.7623 3.64074 10.7203 3.65099 10.6821 3.67002C10.6438 3.68905 10.6103 3.71638 10.584 3.75C9.757 4.302 8.984 4.85 8.159 5.404C8.09024 5.46047 8.0091 5.49988 7.9222 5.519C7.8353 5.53812 7.74511 5.5364 7.659 5.514C7.57804 5.5 7.50128 5.46791 7.43445 5.42012C7.36761 5.37234 7.31243 5.31008 7.273 5.238V5.128C7.332 4.08 7.332 3.143 7.332 2.205ZM20.178 7.333C20.6591 7.32882 21.1194 7.13584 21.4596 6.79561C21.7998 6.45538 21.9928 5.99513 21.997 5.514V1.819C22.0056 1.58244 21.9663 1.34658 21.8814 1.12561C21.7966 0.904638 21.6678 0.703123 21.503 0.53319C21.3382 0.363257 21.1408 0.228419 20.9225 0.136788C20.7043 0.045157 20.4697 -0.00137258 20.233 -1.05682e-06H1.819C1.33794 0.00443292 0.877846 0.197501 0.537674 0.537673C0.197502 0.877845 0.00443398 1.33794 0 1.819V5.514C0.00417722 5.99513 0.197163 6.45538 0.53739 6.79561C0.877617 7.13584 1.33786 7.32882 1.819 7.333H20.178Z" fill="white"/>
<path opacity="0.16" d="M7.33203 2.206C7.33203 1.98533 7.4987 1.875 7.83203 1.875H14.172C14.5054 1.875 14.672 1.98533 14.672 2.206V5.183C14.672 5.348 14.617 5.459 14.396 5.514C14.3015 5.53607 14.2033 5.53767 14.1081 5.5187C14.0129 5.49973 13.9229 5.46062 13.844 5.404L11.364 3.75C11.2865 3.69088 11.1964 3.65023 11.1007 3.63117C11.0051 3.61211 10.9063 3.61513 10.812 3.64C10.7693 3.64074 10.7273 3.65099 10.6891 3.67002C10.6509 3.68905 10.6174 3.71638 10.591 3.75C9.76403 4.302 8.99103 4.85 8.16603 5.404C8.09727 5.46048 8.01613 5.49988 7.92923 5.519C7.84233 5.53812 7.75214 5.53641 7.66603 5.514C7.58507 5.5 7.50831 5.46791 7.44148 5.42013C7.37464 5.37234 7.31946 5.31008 7.28003 5.238V5.128C7.33203 4.08 7.33203 3.143 7.33203 2.206Z" fill="white"/>
<path opacity="0.08" d="M15.839 12.744C15.392 13.244 14.945 13.688 14.498 14.185C14.3777 14.3308 14.2438 14.4647 14.098 14.585C13.9583 14.7527 13.8868 14.967 13.898 15.185C13.998 15.785 14.047 16.328 14.098 16.924C14.147 17.173 14.147 17.424 14.198 17.624C14.2197 17.7328 14.2127 17.8453 14.1776 17.9505C14.1425 18.0557 14.0806 18.15 13.998 18.224C13.8963 18.2939 13.7779 18.3354 13.6548 18.3442C13.5317 18.353 13.4086 18.3287 13.298 18.274C12.598 17.926 11.957 17.574 11.311 17.181C11.209 17.1078 11.0866 17.0683 10.961 17.0683C10.8354 17.0683 10.713 17.1078 10.611 17.181C9.911 17.529 9.22001 17.926 8.52401 18.274C8.4318 18.3236 8.32872 18.3496 8.22401 18.3496C8.11929 18.3496 8.01621 18.3236 7.92401 18.274C7.82547 18.2259 7.74678 18.145 7.70151 18.0452C7.65624 17.9453 7.64722 17.8328 7.67601 17.727C7.73393 17.464 7.76741 17.1962 7.77601 16.927C7.87601 16.327 7.97601 15.735 8.02501 15.138C8.04164 15.0373 8.03197 14.9341 7.99693 14.8382C7.96188 14.7424 7.90266 14.6572 7.82501 14.591L6.18501 12.802C6.12614 12.7485 6.0791 12.6833 6.04692 12.6105C6.01473 12.5377 5.99811 12.4591 5.99811 12.3795C5.99811 12.2999 6.01473 12.2213 6.04692 12.1485C6.0791 12.0758 6.12614 12.0105 6.18501 11.957C6.22866 11.9083 6.28243 11.8698 6.34254 11.844C6.40264 11.8183 6.46765 11.806 6.53301 11.808C7.32801 11.659 8.07301 11.46 8.86801 11.261C8.97769 11.2403 9.08062 11.193 9.16778 11.1232C9.25495 11.0535 9.3237 10.9635 9.368 10.861L10.427 8.76901C10.4894 8.63337 10.6014 8.52674 10.7399 8.47096C10.8784 8.41519 11.033 8.41449 11.172 8.46901C11.221 8.46901 11.221 8.51801 11.272 8.51801C11.3641 8.57691 11.4344 8.66438 11.472 8.76701C11.82 9.41301 12.217 10.108 12.565 10.804C12.6157 10.902 12.6864 10.9882 12.7725 11.0571C12.8587 11.126 12.9583 11.176 13.065 11.204C13.86 11.353 14.654 11.552 15.45 11.704C15.5301 11.7203 15.6059 11.7531 15.6726 11.8003C15.7393 11.8475 15.7955 11.908 15.8375 11.9781C15.8795 12.0482 15.9065 12.1262 15.9168 12.2073C15.927 12.2884 15.9203 12.3707 15.897 12.449C15.9115 12.4992 15.9138 12.5522 15.9037 12.6035C15.8936 12.6548 15.8714 12.703 15.839 12.744Z" fill="white"/>
</svg>
