<svg id="password-mono" xmlns="http://www.w3.org/2000/svg" xmlns:xlink="http://www.w3.org/1999/xlink" width="24" height="24" viewBox="0 0 24 24">
  <defs>
    <clipPath id="clip-path">
      <rect id="Rectangle_4092" data-name="Rectangle 4092" width="24" height="24" fill="none"/>
    </clipPath>
  </defs>
  <g id="password-mono-2" data-name="password-mono" clip-path="url(#clip-path)">
    <path id="Path_11104" data-name="Path 11104" d="M-5.016-12.984V-15a4.972,4.972,0,0,1,1.477-3.539A4.972,4.972,0,0,1,0-20.016a4.972,4.972,0,0,1,3.539,1.477A4.972,4.972,0,0,1,5.016-15v2.016ZM0-18a3.03,3.03,0,0,0-2.109.891A3.03,3.03,0,0,0-3-15v2.016H3V-15a3.03,3.03,0,0,0-.891-2.109A3.03,3.03,0,0,0,0-18Z" transform="translate(12 21)" opacity="0.72"/>
    <path id="Path_11221" data-name="Path 11221" d="M0-3.984a2.08,2.08,0,0,0,1.406-.609A1.908,1.908,0,0,0,1.969-6a1.908,1.908,0,0,0-.562-1.406A1.908,1.908,0,0,0,0-7.969a1.908,1.908,0,0,0-1.406.563A1.908,1.908,0,0,0-1.969-6a1.908,1.908,0,0,0,.563,1.406A2.08,2.08,0,0,0,0-3.984Zm6-9a1.908,1.908,0,0,1,1.406.563,2.08,2.08,0,0,1,.609,1.406V-.984A2.08,2.08,0,0,1,7.406.422,1.908,1.908,0,0,1,6,.984H-6A1.908,1.908,0,0,1-7.406.422,2.08,2.08,0,0,1-8.016-.984V-11.016a2.08,2.08,0,0,1,.609-1.406A1.908,1.908,0,0,1-6-12.984Z" transform="translate(12 21)"/>
  </g>
</svg>
