<svg width="60" height="74" viewBox="0 0 60 74" fill="none" xmlns="http://www.w3.org/2000/svg">
<path d="M8.33316 0.391955C7.37845 0.365932 6.42852 0.535662 5.54189 0.890691C4.65527 1.24572 3.85072 1.77853 3.17782 2.45629C1.80461 3.82798 1.00604 5.67164 0.944824 7.61162V66.392C1.00604 68.3319 1.80461 70.1756 3.17782 71.5473C3.85103 72.2244 4.65572 72.7565 5.54233 73.1109C6.42894 73.4653 7.37871 73.6345 8.33316 73.608H52.3332C53.2876 73.6345 54.2374 73.4653 55.124 73.1109C56.0106 72.7565 56.8153 72.2244 57.4885 71.5473C58.8631 70.1762 59.663 68.3325 59.7252 66.392V7.60795C59.6639 5.66797 58.8654 3.82431 57.4922 2.45262C56.8185 1.77506 56.0132 1.24267 55.126 0.888264C54.2387 0.533857 53.2882 0.36495 52.3332 0.391955H8.33316ZM30.3332 11.392C35.1925 11.3842 39.8575 13.2995 43.3095 16.7196C45.0296 18.3963 46.3953 20.4014 47.3256 22.616C48.2559 24.8306 48.7319 27.2096 48.7252 29.6116C48.743 32.0403 48.2729 34.4479 47.3426 36.6915C46.4123 38.935 45.0408 40.9689 43.3095 42.6723C39.8575 46.0924 35.1925 48.0077 30.3332 48C25.4738 48.0077 20.8088 46.0924 17.3568 42.6723C15.6255 40.9689 14.2541 38.935 13.3238 36.6915C12.3934 34.4479 11.9233 32.0403 11.9412 29.6116C11.9345 27.2096 12.4104 24.8306 13.3407 22.616C14.271 20.4014 15.6367 18.3963 17.3568 16.7196C20.8088 13.2995 25.4738 11.3842 30.3332 11.392ZM30.3332 15C28.8452 17.2897 27.6886 19.7783 26.8975 22.392H33.7725C33.0781 19.7418 31.9131 17.2381 30.3332 15ZM25.5225 15.858C22.152 16.9488 19.3247 19.2843 17.6172 22.3883H22.9448C23.6146 20.1414 24.4771 17.9566 25.5225 15.858ZM35.1475 15.858C36.1892 17.9569 37.0479 20.1418 37.7142 22.3883H43.0528C41.2764 19.3422 38.4742 17.0274 35.1475 15.858ZM16.0662 26C15.8326 27.1883 15.7172 28.3969 15.7215 29.608C15.7226 30.8759 15.8379 32.1411 16.0662 33.3883H22.2665C22.1516 32.127 22.0942 30.895 22.0942 29.6923C22.0942 28.4896 22.1516 27.2588 22.2665 26H16.0662ZM26.0358 26C25.8023 27.1883 25.6869 28.3969 25.6912 29.608C25.6922 30.8759 25.8076 32.1411 26.0358 33.3883H34.6305C34.7454 32.127 34.8028 30.8668 34.8028 29.608C34.8028 28.3491 34.7454 27.1464 34.6305 26H26.0358ZM38.3998 26C38.5147 27.2613 38.5722 28.4933 38.5722 29.696C38.5722 30.8986 38.5147 32.1306 38.3998 33.392H44.6002C44.8284 32.1448 44.9438 30.8795 44.9448 29.6116C44.9494 28.3993 44.8339 27.1895 44.6002 26H38.3998ZM17.6135 37C19.3908 40.0468 22.1944 42.3616 25.5225 43.5303C24.4758 41.4318 23.6122 39.2469 22.9412 37H17.6135ZM26.8975 37C27.6886 39.6136 28.8452 42.1022 30.3332 44.392C31.9131 42.1539 33.0781 39.6501 33.7725 37H26.8975ZM37.7252 37C37.0589 39.2465 36.2002 41.4313 35.1585 43.5303C38.4811 42.3586 41.2791 40.0441 43.0528 37H37.7252ZM11.9412 55.392H48.7252V62.6116H11.9412V55.392Z" fill="#1882FF"/>
</svg>
