<svg id="people-group-mono" xmlns="http://www.w3.org/2000/svg" xmlns:xlink="http://www.w3.org/1999/xlink" width="24" height="24" viewBox="0 0 24 24">
  <defs>
    <clipPath id="clip-path">
      <rect id="Rectangle_4172" data-name="Rectangle 4172" width="24" height="24" fill="none"/>
    </clipPath>
  </defs>
  <g id="people-group-mono-2" data-name="people-group-mono" clip-path="url(#clip-path)">
    <path id="Path_11193" data-name="Path 11193" d="M-6-12.844a2.582,2.582,0,0,0-1.781.75,2.385,2.385,0,0,0-.7,1.758,2.385,2.385,0,0,0,.7,1.758A2.582,2.582,0,0,0-6-7.828a2.387,2.387,0,0,0,1.2-.3,2.863,2.863,0,0,0,.914-.82A4.876,4.876,0,0,1-5.016-12a4.327,4.327,0,0,1,.047-.609A2.273,2.273,0,0,0-6-12.844Zm12,0a2.273,2.273,0,0,0-1.031.234A4.327,4.327,0,0,1,5.016-12,4.876,4.876,0,0,1,3.891-8.953a2.863,2.863,0,0,0,.914.82,2.387,2.387,0,0,0,1.2.3,2.582,2.582,0,0,0,1.781-.75,2.385,2.385,0,0,0,.7-1.758,2.385,2.385,0,0,0-.7-1.758A2.582,2.582,0,0,0,6-12.844Zm-13.312,6.8a8.45,8.45,0,0,0-2.484.82,1.988,1.988,0,0,0-1.219,1.57v1.641h3V-3.984A3.485,3.485,0,0,1-7.312-6.047Zm14.625,0a3.485,3.485,0,0,1,.7,2.063v1.969h3V-3.656A1.988,1.988,0,0,0,9.8-5.227,8.45,8.45,0,0,0,7.313-6.047Z" transform="translate(12 21)" opacity="0.72"/>
    <path id="Path_11216" data-name="Path 11216" d="M0-15a3.03,3.03,0,0,0-2.109.891A2.862,2.862,0,0,0-2.953-12a2.862,2.862,0,0,0,.844,2.109A2.862,2.862,0,0,0,0-9.047a2.862,2.862,0,0,0,2.109-.844A2.862,2.862,0,0,0,2.953-12a2.862,2.862,0,0,0-.844-2.109A3.03,3.03,0,0,0,0-15ZM0-6.984a11.081,11.081,0,0,0-3.75.75q-2.062.75-2.25,2.25v1.969H6V-3.984q-.187-1.5-2.25-2.25A11.081,11.081,0,0,0,0-6.984Z" transform="translate(12 21)"/>
  </g>
</svg>
