<svg width="36" height="36" viewBox="0 0 36 36" fill="none" xmlns="http://www.w3.org/2000/svg">
<circle cx="18" cy="18" r="18" fill="white"/>
<path opacity="0.88" d="M20.9073 11.9321L15.3943 17.4481L7.59434 11.8021C7.46987 11.7121 7.3664 11.5962 7.2911 11.4624C7.21579 11.3285 7.17044 11.1799 7.15817 11.0268C7.14591 10.8738 7.16702 10.7198 7.22006 10.5757C7.27309 10.4316 7.35678 10.3007 7.46534 10.1921C7.58365 10.0717 7.7292 9.9816 7.88968 9.92938C8.05017 9.87716 8.22087 9.86436 8.38734 9.89206L20.9073 11.9321Z" fill="#1882FF"/>
<path opacity="0.8" d="M11.9961 21.3321L12.0411 21.3541C11.4989 22.2669 11.0049 23.2075 10.5611 24.1721L10.5161 24.1491L7.43113 22.0121C7.24073 21.8751 7.10454 21.6755 7.04638 21.4483C6.98821 21.2211 7.01176 20.9806 7.11293 20.769C7.21409 20.5574 7.38642 20.3881 7.59978 20.2907C7.81314 20.1932 8.05396 20.1739 8.28013 20.2361L11.9961 21.3321Z" fill="#1882FF"/>
<path opacity="0.8" d="M15.7662 27.7151C15.8161 27.8873 15.8193 28.0697 15.7754 28.2435C15.7314 28.4173 15.642 28.5763 15.5162 28.7041C15.3309 28.8898 15.0797 28.9946 14.8174 28.9958C14.5551 28.9969 14.303 28.8942 14.1162 28.7101C14.0719 28.6654 14.0317 28.6169 13.9962 28.5651L11.8492 25.4781L11.8262 25.4331C12.7655 25.0023 13.6817 24.523 14.5712 23.9971H14.6712L15.7662 27.7151Z" fill="#1882FF"/>
<path opacity="0.88" d="M26.1082 27.616C26.1476 27.852 26.1061 28.0943 25.9902 28.3036C25.8744 28.5129 25.6911 28.6768 25.4702 28.7687C25.2493 28.8605 25.0039 28.8748 24.7738 28.8093C24.5437 28.7439 24.3426 28.6024 24.2032 28.408L18.5562 20.608L24.0692 15.092L26.1082 27.616Z" fill="#1882FF"/>
<path d="M28.6249 7.37406C27.8869 6.63606 26.2599 7.02506 24.7249 8.21506C24.1169 8.68506 24.7779 8.05806 13.6449 19.2021C13.0297 19.8562 12.4927 20.5797 12.0449 21.3581C11.1046 22.9738 10.2899 24.6595 9.60791 26.4001C11.3225 25.7336 12.9833 24.9366 14.5759 24.0161C15.3803 23.5567 16.1278 23.0042 16.8029 22.3701C27.8869 11.2751 27.3009 11.9061 27.7839 11.2801C28.9739 9.73606 29.3669 8.10806 28.6249 7.37406Z" fill="#1882FF"/>
<path opacity="0.72" d="M24.8701 19.9911L25.7501 19.1111C25.9168 18.9426 26.0103 18.7152 26.0103 18.4781C26.0103 18.2411 25.9168 18.0136 25.7501 17.8451C25.5872 17.6831 25.368 17.5905 25.1383 17.5866C24.9086 17.5826 24.6864 17.6678 24.5181 17.8241L24.8701 19.9911Z" fill="#1882FF"/>
<path opacity="0.72" d="M18.183 11.489C18.3384 11.3186 18.4224 11.0951 18.4178 10.8645C18.4131 10.634 18.3201 10.414 18.158 10.25C18.0747 10.1677 17.9759 10.1027 17.8674 10.0586C17.7589 10.0145 17.6428 9.99223 17.5257 9.99306C17.4086 9.9939 17.2928 10.0178 17.1849 10.0635C17.077 10.1091 16.9792 10.1755 16.897 10.259L16.019 11.137L18.183 11.489Z" fill="#1882FF"/>
</svg>
