<svg xmlns="http://www.w3.org/2000/svg" xmlns:xlink="http://www.w3.org/1999/xlink" width="40" height="40" viewBox="0 0 40 40">
  <defs>
    <clipPath id="clip-path">
      <rect id="Rectangle_3688" data-name="Rectangle 3688" width="40" height="40" fill="none"/>
    </clipPath>
    <clipPath id="clip-path-2">
      <rect id="Rectangle_4282" data-name="Rectangle 4282" width="24" height="24" fill="#4c4c4c"/>
    </clipPath>
  </defs>
  <g id="Mask_Group_186" data-name="Mask Group 186" clip-path="url(#clip-path)">
    <g id="flight-mono" transform="translate(8 8)">
      <g id="flight-mono-2" data-name="flight-mono" clip-path="url(#clip-path-2)">
        <g id="Group_13421" data-name="Group 13421" transform="translate(10.243 -3.739) rotate(45)">
          <path id="Path_3728" data-name="Path 3728" d="M14.159,8.912,9.4,13.675,2.663,8.8a.916.916,0,0,1-.112-1.391.908.908,0,0,1,.8-.255Z" transform="translate(-0.15 -2.752)" fill="#4c4c4c" opacity="0.88"/>
          <path id="Path_3729" data-name="Path 3729" d="M6.313,26.875l.038.019a26.256,26.256,0,0,0-1.278,2.434l-.039-.019L2.37,27.462A.861.861,0,0,1,3.1,25.929Z" transform="translate(0 -12.598)" fill="#4c4c4c" opacity="0.8"/>
          <path id="Path_3730" data-name="Path 3730" d="M14.18,36.018a.872.872,0,0,1-.216.854.858.858,0,0,1-1.213.005.9.9,0,0,1-.1-.125L10.8,34.087l-.019-.038a25.722,25.722,0,0,0,2.371-1.24h.085Z" transform="translate(-4.612 -16.228)" fill="#4c4c4c" opacity="0.8"/>
          <path id="Path_3731" data-name="Path 3731" d="M29.534,27.433a.915.915,0,0,1-1.645.684l-4.877-6.733,4.761-4.764Z" transform="translate(-11.033 -7.729)" fill="#4c4c4c" opacity="0.88"/>
          <path id="Path_3732" data-name="Path 3732" d="M23.165,2.223c-.637-.637-2.042-.3-3.371.726-.525.406.046-.135-9.569,9.489A9.985,9.985,0,0,0,8.842,14.3a31.518,31.518,0,0,0-2.1,4.353,31.052,31.052,0,0,0,4.29-2.059,10.189,10.189,0,0,0,1.924-1.422c9.573-9.581,9.067-9.036,9.484-9.577C23.466,4.263,23.8,2.857,23.165,2.223Z" transform="translate(-2.49 0)" fill="#4c4c4c"/>
          <path id="Path_11133" data-name="Path 11133" d="M34.148,23.226l.76-.76a.775.775,0,0,0,0-1.093h0a.768.768,0,0,0-1.064-.018Z" transform="translate(-16.72 -10.106)" fill="#4c4c4c" opacity="0.72"/>
          <path id="Path_11134" data-name="Path 11134" d="M20.263,8.635a.773.773,0,0,0-.021-1.067l0,0a.77.77,0,0,0-1.089.008l-.758.759Z" transform="translate(-8.607 -2.858)" fill="#4c4c4c" opacity="0.72"/>
        </g>
      </g>
    </g>
  </g>
</svg>
