<svg xmlns="http://www.w3.org/2000/svg" xmlns:xlink="http://www.w3.org/1999/xlink" width="40" height="40" viewBox="0 0 40 40">
  <defs>
    <clipPath id="clip-path">
      <rect id="Rectangle_3688" data-name="Rectangle 3688" width="40" height="40" fill="#4c4c4c"/>
    </clipPath>
    <clipPath id="clip-path-2">
      <rect id="Rectangle_4302" data-name="Rectangle 4302" width="24" height="24" fill="none"/>
    </clipPath>
  </defs>
  <g id="Mask_Group_186" data-name="Mask Group 186" clip-path="url(#clip-path)">
    <g id="visa-mono" transform="translate(8 8)">
      <g id="visa-mono-2" data-name="visa-mono" clip-path="url(#clip-path-2)">
        <g id="Group_13429" data-name="Group 13429" transform="translate(-3.495 -1.441)">
          <path id="Path_11170" data-name="Path 11170" d="M33.532,2.441H32.355a2.277,2.277,0,0,1,2.277,2.277V22.163a2.277,2.277,0,0,1-2.277,2.278h1.177a2.2,2.2,0,0,0,2.2-2.2V4.641A2.2,2.2,0,0,0,33.532,2.441Z" transform="translate(-11.637)" fill="#4c4c4c" opacity="0.56"/>
          <g id="Group_13429-2" data-name="Group 13429" transform="translate(6.495 2.441)">
            <path id="Path_11171" data-name="Path 11171" d="M20.376,22.364h0c.465,0,1.228-1.361,1.367-3.494H19.008C19.149,21,19.913,22.364,20.376,22.364Z" transform="translate(-12.126 -9.834)" fill="#4c4c4c"/>
            <path id="Path_11172" data-name="Path 11172" d="M13.994,13.957h1.358v0a9.525,9.525,0,0,1,.579-2.863A4.2,4.2,0,0,0,13.994,13.957Z" transform="translate(-9.87 -6.334)" fill="#4c4c4c"/>
            <path id="Path_11173" data-name="Path 11173" d="M20.376,9.941c-.463,0-1.228,1.361-1.368,3.5h2.736v0C21.6,11.3,20.838,9.941,20.376,9.941Z" transform="translate(-12.126 -5.816)" fill="#4c4c4c"/>
            <path id="Path_11174" data-name="Path 11174" d="M15.351,18.867H13.994a4.192,4.192,0,0,0,1.937,2.865l0,0A9.531,9.531,0,0,1,15.351,18.867Z" transform="translate(-9.87 -9.833)" fill="#4c4c4c"/>
            <path id="Path_11175" data-name="Path 11175" d="M25.472,21.735h0a4.182,4.182,0,0,0,1.934-2.862H26.049A9.513,9.513,0,0,1,25.472,21.735Z" transform="translate(-15.035 -9.836)" fill="#4c4c4c"/>
            <path id="Path_11176" data-name="Path 11176" d="M20.718,2.441H8.773A2.277,2.277,0,0,0,6.495,4.718V22.163a2.278,2.278,0,0,0,2.278,2.278H20.718A2.277,2.277,0,0,0,23,22.163V4.718A2.277,2.277,0,0,0,20.718,2.441ZM16.893,22.379H12.6A.694.694,0,1,1,12.6,21h4.295a.694.694,0,1,1,0,1.375Zm1.467-2.613H11.131a.694.694,0,1,1,0-1.375H18.36a.694.694,0,1,1,0,1.375Zm1.885-8.709a5.326,5.326,0,0,1-5.5,5.134,5.327,5.327,0,0,1-5.5-5.134v-.733a5.331,5.331,0,0,1,5.5-5.133h0a5.331,5.331,0,0,1,5.5,5.133Z" transform="translate(-6.495 -2.441)" fill="#4c4c4c"/>
            <path id="Path_11177" data-name="Path 11177" d="M25.47,11.094a9.514,9.514,0,0,1,.58,2.864h1.357A4.189,4.189,0,0,0,25.47,11.094Z" transform="translate(-15.034 -6.335)" fill="#4c4c4c"/>
          </g>
          <path id="Path_11178" data-name="Path 11178" d="M16.948,36.191a.694.694,0,1,0,0,1.375h4.295a.694.694,0,1,0,0-1.375Z" transform="translate(-4.35 -15.188)" fill="#4c4c4c" opacity="0.08"/>
          <path id="Path_11179" data-name="Path 11179" d="M14.281,31.441a.694.694,0,1,0,0,1.375H21.51a.694.694,0,1,0,0-1.375Z" transform="translate(-3.15 -13.05)" fill="#4c4c4c" opacity="0.08"/>
          <path id="Path_11180" data-name="Path 11180" d="M17,7.441a5.331,5.331,0,0,0-5.5,5.133v.733A5.327,5.327,0,0,0,17,18.441a5.326,5.326,0,0,0,5.5-5.134v-.733a5.331,5.331,0,0,0-5.5-5.133Zm0,9.781c-.463,0-1.227-1.362-1.368-3.5h2.735c-.139,2.133-.9,3.494-1.367,3.494Zm2.187-.631h0a9.513,9.513,0,0,0,.577-2.861h1.357a4.182,4.182,0,0,1-1.934,2.862Zm-4.376,0h0a4.192,4.192,0,0,1-1.937-2.865h1.357a9.513,9.513,0,0,0,.577,2.861Zm6.313-4.276H19.761a9.514,9.514,0,0,0-.58-2.864,4.19,4.19,0,0,1,1.937,2.863Zm-6.892,0H12.869a4.2,4.2,0,0,1,1.937-2.865,9.525,9.525,0,0,0-.579,2.863Zm4.136,0H15.627c.14-2.137.905-3.5,1.368-3.5s1.228,1.361,1.367,3.5Z" transform="translate(-2.25 -2.25)" fill="#4c4c4c" opacity="0.08"/>
        </g>
      </g>
    </g>
  </g>
</svg>
