<svg xmlns="http://www.w3.org/2000/svg" xmlns:xlink="http://www.w3.org/1999/xlink" width="40" height="40" viewBox="0 0 40 40">
  <defs>
    <clipPath id="clip-path">
      <rect id="Rectangle_3688" data-name="Rectangle 3688" width="40" height="40" fill="#4c4c4c"/>
    </clipPath>
    <clipPath id="clip-path-2">
      <rect id="Rectangle_4300" data-name="Rectangle 4300" width="24" height="24" fill="none"/>
    </clipPath>
  </defs>
  <g id="Mask_Group_186" data-name="Mask Group 186" clip-path="url(#clip-path)">
    <g id="holiday-mono" transform="translate(8 8)">
      <g id="hoiday-mono" clip-path="url(#clip-path-2)">
        <g id="Group_13424" data-name="Group 13424" transform="translate(1 1)">
          <path id="Path_11147" data-name="Path 11147" d="M5.26,15.283V28.13A1.836,1.836,0,0,0,7.079,29.95H21.8a1.836,1.836,0,0,0,1.819-1.819V15.283Zm14.02,5.411c-.447.5-.894.944-1.341,1.441a2.97,2.97,0,0,1-.4.4.868.868,0,0,0-.2.6c.1.6.149,1.143.2,1.739.049.249.049.5.1.7a.638.638,0,0,1-.2.6.693.693,0,0,1-.7.05c-.7-.348-1.341-.7-1.987-1.093a.6.6,0,0,0-.7,0c-.7.348-1.391.745-2.087,1.093a.633.633,0,0,1-.6,0,.471.471,0,0,1-.248-.547,4.368,4.368,0,0,0,.1-.8c.1-.6.2-1.192.249-1.789a.592.592,0,0,0-.2-.547l-1.64-1.789a.571.571,0,0,1,0-.845.449.449,0,0,1,.348-.149c.795-.149,1.54-.348,2.335-.547a.683.683,0,0,0,.5-.4l1.043-2.087a.585.585,0,0,1,.745-.3c.049,0,.049.049.1.049a.5.5,0,0,1,.2.249c.348.646.745,1.341,1.093,2.037a.788.788,0,0,0,.5.4c.795.149,1.589.348,2.385.5a.589.589,0,0,1,.447.745A.329.329,0,0,1,19.28,20.694Z" transform="translate(-3.441 -7.95)" fill="#4c4c4c"/>
          <path id="Path_11148" data-name="Path 11148" d="M9.284,4.155q0-.331.5-.331h6.34q.5,0,.5.331V7.133c0,.165-.055.276-.276.331a.681.681,0,0,1-.552-.11L13.309,5.7a.641.641,0,0,0-.552-.11.287.287,0,0,0-.221.11c-.827.552-1.6,1.1-2.425,1.654a.564.564,0,0,1-.5.11.546.546,0,0,1-.386-.276V7.078C9.284,6.03,9.284,5.093,9.284,4.155ZM22.13,9.283a1.835,1.835,0,0,0,1.819-1.819V3.769A1.755,1.755,0,0,0,22.185,1.95H3.771A1.836,1.836,0,0,0,1.952,3.769V7.464A1.835,1.835,0,0,0,3.771,9.283Z" transform="translate(-1.952 -1.95)" fill="#4c4c4c" opacity="0.8"/>
          <path id="Path_11149" data-name="Path 11149" d="M15.239,5.69q0-.331.5-.331h6.34q.5,0,.5.331V8.667c0,.165-.055.276-.276.331a.681.681,0,0,1-.552-.11l-2.48-1.654a.641.641,0,0,0-.552-.11.287.287,0,0,0-.221.11c-.827.552-1.6,1.1-2.425,1.654a.564.564,0,0,1-.5.11.546.546,0,0,1-.386-.276V8.612C15.239,7.564,15.239,6.627,15.239,5.69Z" transform="translate(-7.907 -3.484)" fill="#4c4c4c" opacity="0.16"/>
          <path id="Path_11150" data-name="Path 11150" d="M22.712,21.594c-.447.5-.894.944-1.341,1.441a2.971,2.971,0,0,1-.4.4.868.868,0,0,0-.2.6c.1.6.149,1.143.2,1.739.049.249.049.5.1.7a.638.638,0,0,1-.2.6.693.693,0,0,1-.7.05c-.7-.348-1.341-.7-1.987-1.093a.6.6,0,0,0-.7,0c-.7.348-1.391.745-2.087,1.093a.633.633,0,0,1-.6,0,.471.471,0,0,1-.248-.547,4.368,4.368,0,0,0,.1-.8c.1-.6.2-1.192.249-1.789a.592.592,0,0,0-.2-.547l-1.64-1.789a.571.571,0,0,1,0-.845.449.449,0,0,1,.348-.149c.795-.149,1.54-.348,2.335-.547a.683.683,0,0,0,.5-.4L17.3,17.619a.585.585,0,0,1,.745-.3c.049,0,.049.049.1.049a.5.5,0,0,1,.2.249c.348.646.745,1.341,1.093,2.037a.788.788,0,0,0,.5.4c.795.149,1.589.348,2.385.5a.589.589,0,0,1,.447.745A.329.329,0,0,1,22.712,21.594Z" transform="translate(-6.873 -8.85)" fill="#4c4c4c" opacity="0.08"/>
        </g>
      </g>
    </g>
  </g>
</svg>
