<svg xmlns="http://www.w3.org/2000/svg" xmlns:xlink="http://www.w3.org/1999/xlink" width="40" height="40" viewBox="0 0 40 40">
  <defs>
    <clipPath id="clip-path">
      <rect id="Rectangle_3688" data-name="Rectangle 3688" width="40" height="40" fill="#4c4c4c"/>
    </clipPath>
    <clipPath id="clip-path-2">
      <rect id="Rectangle_4283" data-name="Rectangle 4283" width="24" height="24" fill="none"/>
    </clipPath>
  </defs>
  <g id="Mask_Group_186" data-name="Mask Group 186" clip-path="url(#clip-path)">
    <g id="hotel-mono" transform="translate(8 8)">
      <g id="hotel-mono-2" data-name="hotel-mono" clip-path="url(#clip-path-2)">
        <g id="Group_13422" data-name="Group 13422" transform="translate(1 1)">
          <path id="Path_11137" data-name="Path 11137" d="M26.489,2h-14.1a.649.649,0,0,0-.641.641V13.477a2.722,2.722,0,0,1,1.189,2.25,2.3,2.3,0,0,1-.062.559A3.712,3.712,0,0,1,14.026,19a3.812,3.812,0,0,1-1.148,2.736,3.756,3.756,0,0,1-1.128.752v.042h5.131V18.853a.733.733,0,1,1,0-1.465h5.132a.733.733,0,1,1,0,1.465h0v3.682h5.13V2.66A.657.657,0,0,0,26.489,2ZM16.148,14.822a.367.367,0,0,1-.366.367H14.316a.368.368,0,0,1-.366-.366V13.357a.368.368,0,0,1,.366-.366h1.466a.368.368,0,0,1,.366.366Zm-2.2-5.862a.368.368,0,0,1,.366-.366h1.466a.368.368,0,0,1,.366.366v1.465a.368.368,0,0,1-.366.366H14.316a.368.368,0,0,1-.366-.366Zm2.2-2.93a.368.368,0,0,1-.366.366H14.316a.368.368,0,0,1-.366-.366l0-1.466a.367.367,0,0,1,.369-.364h1.466a.368.368,0,0,1,.366.366Zm4.4,8.792a.368.368,0,0,1-.366.366H18.714a.368.368,0,0,1-.366-.366V13.357a.368.368,0,0,1,.366-.366H20.18a.368.368,0,0,1,.366.366Zm0-4.4a.368.368,0,0,1-.366.366H18.714a.368.368,0,0,1-.366-.366V8.961a.368.368,0,0,1,.366-.366H20.18a.368.368,0,0,1,.366.366Zm0-4.4a.368.368,0,0,1-.366.366H18.714a.368.368,0,0,1-.366-.366V4.565a.368.368,0,0,1,.366-.365H20.18a.368.368,0,0,1,.366.366Zm4.4,8.793a.368.368,0,0,1-.366.366H23.112a.368.368,0,0,1-.366-.366V13.357a.368.368,0,0,1,.366-.366h1.466a.368.368,0,0,1,.366.366Zm0-4.4a.368.368,0,0,1-.366.366H23.112a.368.368,0,0,1-.366-.366V8.961a.368.368,0,0,1,.366-.366h1.466a.368.368,0,0,1,.366.366Zm0-4.4a.368.368,0,0,1-.366.366H23.112a.368.368,0,0,1-.366-.366V4.565a.368.368,0,0,1,.366-.365h1.466a.368.368,0,0,1,.366.366Z" transform="translate(-6.398 -2)" fill="#4c4c4c"/>
          <path id="Path_11138" data-name="Path 11138" d="M3.108,30.678a3.758,3.758,0,0,0,1.3.856h.875V28.129L4.351,27.2a.538.538,0,1,1,.754-.769l.008.008.171.155V24.618a.544.544,0,1,1,1.088,0v3.045l.171-.155a.526.526,0,0,1,.743-.018l.018.018a.544.544,0,0,1,.008.769l-.008.008-.932.932v2.318h.9A3.756,3.756,0,0,0,8.5,30.741,3.812,3.812,0,0,0,9.649,28,3.712,3.712,0,0,0,8.5,25.286a2.3,2.3,0,0,0,.062-.559,2.727,2.727,0,0,0-5.454,0,2.3,2.3,0,0,0,.062.559A3.813,3.813,0,0,0,3.108,30.678Z" transform="translate(-2.021 -11)" fill="#4c4c4c" opacity="0.8"/>
          <path id="Path_11139" data-name="Path 11139" d="M7.056,33.231V29.826l-.932-.932a.538.538,0,1,1,.754-.769l.008.008.171.155V26.315a.544.544,0,1,1,1.088,0V29.36l.171-.155a.526.526,0,0,1,.743-.018l.018.018a.544.544,0,0,1,.008.769l-.008.008-.932.932v2.318Z" transform="translate(-3.794 -12.697)" fill="#4c4c4c" opacity="0.16"/>
          <g id="Group_13423" data-name="Group 13423" transform="translate(7.548 2.2)" opacity="0.08">
            <path id="Rectangle_4284" data-name="Rectangle 4284" d="M.667,0h.866A.666.666,0,0,1,2.2.666v.866a.666.666,0,0,1-.666.666H.666A.666.666,0,0,1,0,1.532V.667A.667.667,0,0,1,.667,0Z" transform="translate(0.003 8.791)" fill="#4c4c4c"/>
            <path id="Rectangle_4285" data-name="Rectangle 4285" d="M.666,0h.865A.666.666,0,0,1,2.2.666v.866a.666.666,0,0,1-.666.666H.667A.667.667,0,0,1,0,1.531V.666A.666.666,0,0,1,.666,0Z" transform="translate(0.001 4.394)" fill="#4c4c4c"/>
            <path id="Path_11140" data-name="Path 11140" d="M17.945,7.83a.368.368,0,0,1-.366.366H16.112a.368.368,0,0,1-.366-.366l0-1.466A.367.367,0,0,1,16.112,6h1.466a.368.368,0,0,1,.366.366Z" transform="translate(-15.743 -6)" fill="#4c4c4c"/>
            <rect id="Rectangle_4286" data-name="Rectangle 4286" width="2.199" height="2.198" rx="0.666" transform="translate(4.401 8.791)" fill="#4c4c4c"/>
            <rect id="Rectangle_4287" data-name="Rectangle 4287" width="2.199" height="2.198" rx="0.666" transform="translate(4.401 4.395)" fill="#4c4c4c"/>
            <path id="Rectangle_4288" data-name="Rectangle 4288" d="M.666,0h.867A.666.666,0,0,1,2.2.666v.867a.663.663,0,0,1-.663.663H.666A.666.666,0,0,1,0,1.53V.666A.666.666,0,0,1,.666,0Z" transform="translate(4.401 0)" fill="#4c4c4c"/>
            <rect id="Rectangle_4289" data-name="Rectangle 4289" width="2.199" height="2.198" rx="0.666" transform="translate(8.799 8.791)" fill="#4c4c4c"/>
            <rect id="Rectangle_4290" data-name="Rectangle 4290" width="2.199" height="2.198" rx="0.666" transform="translate(8.799 4.395)" fill="#4c4c4c"/>
            <path id="Rectangle_4291" data-name="Rectangle 4291" d="M.666,0h.867A.666.666,0,0,1,2.2.666v.868a.663.663,0,0,1-.663.663H.666A.666.666,0,0,1,0,1.531V.666A.666.666,0,0,1,.666,0Z" transform="translate(8.799 0)" fill="#4c4c4c"/>
          </g>
          <path id="Path_11141" data-name="Path 11141" d="M2.755,39.335a.733.733,0,0,0,0,1.466H23.279a.742.742,0,0,0,.743-.743.726.726,0,0,0-.743-.723Z" transform="translate(-2.022 -18.801)" fill="#4c4c4c" opacity="0.88"/>
        </g>
      </g>
    </g>
  </g>
</svg>
