<svg xmlns="http://www.w3.org/2000/svg" xmlns:xlink="http://www.w3.org/1999/xlink" width="40" height="40" viewBox="0 0 40 40">
  <defs>
    <clipPath id="clip-path">
      <rect id="Rectangle_3688" data-name="Rectangle 3688" width="40" height="40" fill="#4c4c4c"/>
    </clipPath>
    <clipPath id="clip-path-2">
      <rect id="Rectangle_4301" data-name="Rectangle 4301" width="24" height="24" fill="none"/>
    </clipPath>
  </defs>
  <g id="Mask_Group_186" data-name="Mask Group 186" clip-path="url(#clip-path)">
    <g id="tour-mono" transform="translate(8 8)">
      <g id="tour-mono-2" data-name="tour-mono" clip-path="url(#clip-path-2)">
        <g id="Group_13428" data-name="Group 13428" transform="translate(5 1)">
          <path id="Path_11165" data-name="Path 11165" d="M25.3,4.906a2.662,2.662,0,1,1-5.323-.064V4.778A2.663,2.663,0,1,1,25.3,4.585v.321Z" transform="translate(-14.198 -2.017)" fill="#4c4c4c" opacity="0.88"/>
          <path id="Path_11166" data-name="Path 11166" d="M13.32,29.819c-.641,1.668-1.572,3.909-2.085,5.32,0,.064,0,.128.064.128.449.128,1.924.705,2.373.9.064,0,.128,0,.128-.064a21.379,21.379,0,0,0,1.229-3.386c.129-.706-.876-1.677-1.517-2.9C13.486,29.715,13.392,29.672,13.32,29.819Z" transform="translate(-10.265 -14.485)" fill="#4c4c4c" opacity="0.88"/>
          <path id="Path_11167" data-name="Path 11167" d="M30.527,26.625a.433.433,0,0,1,.256.385c-.449,2.309-.9,4.746-1.411,7.119l-.064.257a.063.063,0,0,0,.064.064l.385.064h0a.276.276,0,0,0,.256-.257c.064-.384.256-1.283.385-1.731.449-1.924.384-4.233,1.411-5.708Z" transform="translate(-18.398 -13.091)" fill="#4c4c4c" opacity="0.8"/>
          <path id="Path_11168" data-name="Path 11168" d="M12.41,19.458c-.1-2.028,1-5.5,2.587-6.293A12.9,12.9,0,0,0,11.917,11.7c-.385-.064-1.091.9-1.283,1.6-.449,1.283-.577,2.63-1.026,3.912-.449,1.411.256,1.988,1.475,2.181A9.242,9.242,0,0,0,12.41,19.458Z" transform="translate(-9.472 -6.372)" fill="#4c4c4c" opacity="0.8"/>
          <path id="Path_11169" data-name="Path 11169" d="M25.282,21.036a2.607,2.607,0,0,0,.256-3.014.331.331,0,0,0-.449-.193c-1.6.769-2.245.449-3.271-1.283-1.731-2.758-2.437-3.143-4.3-2.5-.042.017-.085.036-.126.057-1.59.788-2.684,4.264-2.587,6.293,0,.089.01.174.019.257a5.992,5.992,0,0,0,.77,2.116c1.283,1.988,2.758,3.848,2.95,6.221a.359.359,0,0,0,.385.321l1.8-.128a.359.359,0,0,0,.321-.385,5.711,5.711,0,0,0-.706-3.27c-1.539-2.309-.833-4.169-.256-5.965a.286.286,0,0,1,.385-.192h.064c1.219.577,2.245,1.026,3.463,1.475Z" transform="translate(-11.871 -7.309)" fill="#4c4c4c"/>
        </g>
      </g>
    </g>
  </g>
</svg>
