<svg xmlns="http://www.w3.org/2000/svg" xmlns:xlink="http://www.w3.org/1999/xlink" width="40" height="40" viewBox="0 0 40 40">
  <defs>
    <clipPath id="clip-path">
      <rect id="Rectangle_3688" data-name="Rectangle 3688" width="40" height="40" fill="#4c4c4c"/>
    </clipPath>
    <clipPath id="clip-path-2">
      <rect id="Rectangle_4302" data-name="Rectangle 4302" width="24" height="24" fill="none"/>
    </clipPath>
  </defs>
  <g id="Mask_Group_186" data-name="Mask Group 186" clip-path="url(#clip-path)">
    <g id="tranfer-mono" transform="translate(8 8)">
      <g id="tranfer-mono-2" data-name="tranfer-mono" clip-path="url(#clip-path-2)">
        <g id="Group_13426" data-name="Group 13426" transform="translate(1 3)">
          <path id="Path_11159" data-name="Path 11159" d="M22.2,10.671,21.038,7.7a2.527,2.527,0,0,0-2.15-1.515H8.029A2.527,2.527,0,0,0,5.879,7.7L4.721,10.671l-.992,2.564-.221.466a10.477,10.477,0,0,0-.551,2.972v5.886a1.2,1.2,0,0,0,1.158,1.224H5.658a1.2,1.2,0,0,0,1.158-1.224V21.1H19.991v1.457a1.2,1.2,0,0,0,1.158,1.224h1.543a1.2,1.2,0,0,0,1.158-1.224V16.615a11.293,11.293,0,0,0-.552-2.972l-.165-.466ZM5.548,12.536,7.312,8.048A1.552,1.552,0,0,1,8.58,7.115h9.647a1.552,1.552,0,0,1,1.268.933l1.764,4.488a.593.593,0,0,1-.221.816.432.432,0,0,1-.386.058H6.154a.576.576,0,0,1-.662-.525A.4.4,0,0,1,5.548,12.536Zm3.914,5.711a.55.55,0,0,1-.441.524H5.713c-.276,0-.441-.233-.5-.524v-1.69a.55.55,0,0,1,.5-.525H9.021c.276,0,.441.233.5.525Zm12.183,0a.55.55,0,0,1-.441.524H17.9c-.276,0-.441-.233-.5-.524v-1.69a.55.55,0,0,1,.5-.525H21.2a.467.467,0,0,1,.441.525Z" transform="translate(-2.461 -6.183)" fill="#4c4c4c"/>
          <g id="Group_13427" data-name="Group 13427" transform="translate(2.756 0.932)">
            <path id="Path_11160" data-name="Path 11160" d="M7.6,13.3,9.368,8.811a1.552,1.552,0,0,1,1.268-.933h9.647a1.552,1.552,0,0,1,1.268.933L23.314,13.3a.593.593,0,0,1-.221.816.432.432,0,0,1-.386.058H8.21a.576.576,0,0,1-.662-.525A.4.4,0,0,1,7.6,13.3Z" transform="translate(-7.273 -7.878)" fill="#4c4c4c" opacity="0.08"/>
            <path id="Path_11161" data-name="Path 11161" d="M11.311,26.3a.55.55,0,0,1-.441.524H7.562c-.276,0-.441-.233-.5-.524v-1.69a.55.55,0,0,1,.5-.525H10.87c.276,0,.441.233.5.525Z" transform="translate(-7.066 -15.173)" fill="#4c4c4c" opacity="0.16"/>
            <path id="Path_11162" data-name="Path 11162" d="M33.461,26.3a.55.55,0,0,1-.441.524H29.712c-.276,0-.441-.233-.5-.524v-1.69a.55.55,0,0,1,.5-.525H33.02a.467.467,0,0,1,.441.525Z" transform="translate(-17.033 -15.173)" fill="#4c4c4c" opacity="0.16"/>
          </g>
          <path id="Path_11163" data-name="Path 11163" d="M4.315,14.056l-1.1-.292a2.29,2.29,0,0,1-.276-.058.9.9,0,0,0-.882.933V15.4A1.2,1.2,0,0,0,3.213,16.62h.11Z" transform="translate(-2.055 -9.568)" fill="#4c4c4c" opacity="0.8"/>
          <path id="Path_11164" data-name="Path 11164" d="M38.873,16.514h.165A1.2,1.2,0,0,0,40.2,15.29v-.7a.873.873,0,0,0-.827-.991h-.055a.4.4,0,0,0-.276.058l-1.1.35Z" transform="translate(-18.201 -9.521)" fill="#4c4c4c" opacity="0.8"/>
        </g>
      </g>
    </g>
  </g>
</svg>
