<svg xmlns="http://www.w3.org/2000/svg" xmlns:xlink="http://www.w3.org/1999/xlink" width="24" height="24" viewBox="0 0 24 24">
  <defs>
    <clipPath id="clip-path">
      <rect id="Rectangle_3845" data-name="Rectangle 3845" width="24" height="24" fill="none"/>
    </clipPath>
  </defs>
  <g id="tripcoin-mono" clip-path="url(#clip-path)">
    <g id="Group_13417" data-name="Group 13417" transform="translate(1 2)">
      <path id="Path_11106" data-name="Path 11106" d="M23.441,3.881c-.321,0-.639.018-.953.048a10.039,10.039,0,0,1-.006,19.985c.316.03.635.048.959.048a10.041,10.041,0,1,0,0-20.082Z" transform="translate(-11.482 -3.881)" opacity="0.48"/>
      <path id="Path_11107" data-name="Path 11107" d="M29.5,6.166h1.9a9.945,9.945,0,0,0-1.134-.613H28.347A9.931,9.931,0,0,1,29.5,6.166Z" transform="translate(-14.121 -4.633)" opacity="0.6"/>
      <path id="Path_11108" data-name="Path 11108" d="M12.523,3.881A10.041,10.041,0,1,0,22.565,13.922,10.076,10.076,0,0,0,12.523,3.881ZM15.59,19.747a2.141,2.141,0,0,1-1.533.613,2.651,2.651,0,0,1-2.606-2.683V15.072H9.994a.92.92,0,0,1,0-1.84H11.45V11.546H9.994a.92.92,0,0,1,0-1.84H11.45V8.1a.843.843,0,1,1,1.686,0V9.783h1.456a.932.932,0,0,1,.92.92h0a.932.932,0,0,1-.92.92h-1.38v1.839h1.456a.92.92,0,1,1,0,1.84H13.213v2.606a.851.851,0,0,0,.843.843h0a.282.282,0,0,0,.23-.077.8.8,0,0,1,1.226,0c.383.153.383.69.077,1.073Z" transform="translate(-2.482 -3.881)"/>
      <path id="Path_11109" data-name="Path 11109" d="M37,10.849H35.083c.156.2.3.4.443.613h1.929C37.313,11.251,37.158,11.049,37,10.849Z" transform="translate(-17.152 -7.017)" opacity="0.6"/>
      <path id="Path_11110" data-name="Path 11110" d="M39.889,16.145H37.972c.07.2.139.405.2.613H40.08Q39.994,16.447,39.889,16.145Z" transform="translate(-18.453 -9.4)" opacity="0.6"/>
      <path id="Path_11111" data-name="Path 11111" d="M38.981,21.824c0,.051-.007.1-.007.153h1.917c0-.052.008-.1.008-.153,0-.13-.014-.255-.019-.383H38.963C38.968,21.569,38.981,21.7,38.981,21.824Z" transform="translate(-18.898 -11.783)" opacity="0.6"/>
      <path id="Path_11112" data-name="Path 11112" d="M40.193,26.6H38.277c-.053.207-.11.411-.175.613h1.922C40.089,27.01,40.14,26.8,40.193,26.6Z" transform="translate(-18.511 -14.103)" opacity="0.6"/>
      <path id="Path_11113" data-name="Path 11113" d="M37.7,31.893h-1.91c-.134.21-.277.414-.426.613h1.91C37.426,32.307,37.569,32.1,37.7,31.893Z" transform="translate(-17.28 -16.486)" opacity="0.6"/>
      <path id="Path_11114" data-name="Path 11114" d="M32.1,37.189H30.17a10.036,10.036,0,0,1-1.009.613h1.92A10.035,10.035,0,0,0,32.1,37.189Z" transform="translate(-14.488 -18.87)" opacity="0.6"/>
    </g>
  </g>
</svg>
