<svg width="178" height="56" viewBox="0 0 178 56" fill="none" xmlns="http://www.w3.org/2000/svg">
<rect width="178" height="56" fill="white"/>
<path d="M82.7258 29.7907C82.7071 31.0447 82.6193 32.2968 82.463 33.5415C82.236 35.4665 81.9314 37.3799 81.794 39.3107C81.7163 40.3782 78.0428 40.1157 78.1205 39.0482C78.2698 37.0765 78.5565 35.1224 78.8014 33.1624C78.9466 32.0184 79.0264 30.8675 79.0404 29.7149C78.0499 31.0609 77.1423 32.4634 76.3226 33.9149C75.2355 35.8632 74.2738 37.8699 73.336 39.8824C72.3564 41.3174 72.5834 41.5157 69.6326 40.2324C69.3161 40.0982 69.4654 39.579 69.4415 39.2407C69.4437 39.0132 69.4698 38.7864 69.5192 38.564C69.6088 38.0332 69.8298 37.199 69.9612 36.6974C70.7795 33.6407 71.562 30.5782 72.2728 27.4982C73.0732 23.864 74.1842 18.9932 74.7516 15.3182C75.0204 13.5682 75.2653 11.8591 75.558 10.1382C75.791 9.08822 79.3868 9.86989 79.1419 10.9199C78.8791 12.5649 78.6342 14.2157 78.3773 15.8666C77.8278 19.4307 76.7407 24.1965 75.9881 27.7257C76.221 27.4107 76.454 27.0899 76.6989 26.7866C77.5053 25.8357 78.5446 24.8149 79.9483 24.9782C80.4121 25.0356 80.8547 25.2017 81.2385 25.4624C81.5775 25.7717 81.8764 26.1204 82.1285 26.5007C82.2539 26.8449 82.4212 27.1774 82.5167 27.5332C82.6757 28.2753 82.7459 29.0328 82.7258 29.7907Z" fill="#1882FF"/>
<path d="M101.416 24.2491C100.853 25.6826 100.384 27.1498 100.012 28.6416C99.2284 31.7082 98.6044 34.8116 98.1425 37.9399C97.8677 40.0282 97.9872 38.9899 97.7841 41.0549C97.6706 42.1166 94.0091 41.7607 94.1166 40.6932C94.3436 38.5057 94.2122 39.6024 94.5049 37.4149C94.6004 36.7557 94.7079 36.0966 94.8214 35.4432C93.6194 36.6344 92.2017 37.5976 90.6402 38.2841C90.2484 38.4174 89.8496 38.5303 89.4456 38.6224C89.0812 38.6224 88.7169 38.6866 88.3585 38.6632C87.754 38.6201 87.1672 38.4453 86.641 38.1515C86.1149 37.8577 85.6628 37.4526 85.3181 36.9657C85.1575 36.7016 85.0119 36.4289 84.8821 36.1491C84.8104 35.8866 84.7208 35.6299 84.673 35.3616C84.4222 33.9382 84.912 32.5266 85.4077 31.2141C85.563 30.8757 85.7004 30.5316 85.8677 30.2049C86.8505 28.3032 88.2015 26.6055 89.8458 25.2057C90.1863 24.9374 90.5088 24.6574 90.8612 24.4066C92.107 23.4471 93.675 22.9769 95.2575 23.0882C95.4964 23.1232 95.7353 23.1466 95.9683 23.1991C96.5552 23.3377 97.1117 23.5788 97.6109 23.9107C97.7662 23.4791 97.9394 23.0532 98.1306 22.6332C98.6144 21.6766 101.906 23.2924 101.416 24.2491ZM96.4282 27.8132C96.3272 27.7543 96.2494 27.6639 96.2072 27.5566C96.1097 27.3731 95.9733 27.212 95.807 27.0841C95.6711 26.9501 95.5092 26.8439 95.3307 26.7718C95.1522 26.6996 94.9608 26.663 94.7677 26.6641C93.6985 26.6349 92.9339 27.3699 92.1574 28.0057C90.6795 29.2893 89.5211 30.8854 88.7706 32.6724C88.5735 33.3607 88.0061 34.4224 88.4003 35.1107H88.46C88.4959 35.1107 88.5257 35.1691 88.5675 35.1691C88.6093 35.1691 88.5675 35.1224 88.5675 35.1166C88.6133 35.1135 88.6592 35.1135 88.7049 35.1166C88.8343 35.1218 88.9626 35.0915 89.0752 35.0291C90.6429 34.2508 92.0486 33.1945 93.2206 31.9141C94.1641 30.9497 94.9571 29.8549 95.574 28.6649C95.6513 28.5567 95.7589 28.4727 95.884 28.423C96.0091 28.3733 96.1462 28.3601 96.2789 28.3849C96.3386 28.1982 96.3804 28.0057 96.4282 27.8132Z" fill="#1882FF"/>
<path d="M114.533 26.7284L114.264 28.0292C114.217 28.2592 114.105 28.4719 113.942 28.6438C113.778 28.8158 113.57 28.9402 113.338 29.0034C109.157 30.1701 106.081 35.5426 105.328 39.9759C105.155 41.0317 101.529 40.5592 101.685 39.4684C101.947 37.6659 104.522 24.5526 105.107 22.8609C105.591 21.8984 108.9 23.4792 108.416 24.4417C108.112 25.7309 107.962 26.5417 107.712 27.8484C108.703 26.2442 111.475 25.3634 113.141 25.2001C113.344 25.1821 113.548 25.2109 113.738 25.2841C113.927 25.3573 114.096 25.4728 114.232 25.6215C114.367 25.7701 114.465 25.9477 114.517 26.14C114.569 26.3322 114.575 26.5338 114.533 26.7284Z" fill="#1882FF"/>
<path d="M126.419 37.9866C125.67 38.5259 124.87 38.9946 124.03 39.3866C121.91 40.3258 119.688 41.1366 117.322 41.0841C116.457 41.0633 115.607 40.8645 114.826 40.5008C114.23 40.2237 113.701 39.8261 113.275 39.3343C112.849 38.8425 112.534 38.2678 112.353 37.6483C112.268 37.2341 112.21 36.8153 112.179 36.3941C112.215 36.0149 112.227 35.6358 112.293 35.2274C112.628 33.5925 113.257 32.0284 114.151 30.6074C114.142 30.4559 114.142 30.304 114.151 30.1524C114.151 29.8433 114.449 29.6216 114.879 29.4816L115.094 29.1549C115.423 28.7408 115.728 28.3149 116.074 27.9124C117.36 26.332 118.993 25.0541 120.852 24.1733C121.289 23.9808 121.748 23.8641 122.196 23.7124C122.682 23.6165 123.176 23.5638 123.672 23.5549C124.421 23.6001 125.14 23.8647 125.733 24.3141C126.326 24.7636 126.768 25.3772 126.999 26.0749C127.1 26.3608 127.148 26.6583 127.22 26.9499C127.275 27.2187 127.289 27.4938 127.262 27.7666C127.155 29.1403 126.645 30.4549 125.792 31.5524C124.794 32.8759 123.501 33.9609 122.011 34.7258C120.5 35.4083 119.025 35.8574 117.382 35.3499C117.113 35.2496 116.85 35.1347 116.594 35.0058L116.379 34.8716C116.236 35.2779 116.13 35.6956 116.062 36.1199V36.6508C116.092 36.7405 116.132 36.8266 116.181 36.9074C116.432 37.2691 117.334 37.2341 117.699 37.2458C119.352 37.0812 120.959 36.6142 122.435 35.8691C123.053 35.5785 123.641 35.2308 124.191 34.8308C125.111 34.2299 127.363 37.3333 126.419 37.9866ZM118.911 30.5374C118.672 30.8174 118.457 31.1208 118.242 31.4066C118.29 31.5583 118.738 32.0541 118.762 31.8499C119.326 31.7949 119.87 31.6196 120.357 31.3366C121.287 30.83 122.09 30.1288 122.71 29.2833C123.165 28.7275 123.38 28.0198 123.307 27.3116C123.272 27.2591 122.997 26.9674 123.039 27.2066C123.039 27.2649 123.128 27.3233 123.092 27.3758C123.057 27.4283 122.913 27.4691 122.83 27.5158C121.284 28.185 119.936 29.2243 118.911 30.5374Z" fill="#1882FF"/>
<path d="M146.262 15.7908L146.232 15.7558C145.158 15.5426 144.06 15.4603 142.965 15.5108C140.946 15.5108 138.933 15.575 136.92 15.7558C136.837 16.7475 136.717 17.7333 136.586 18.725C136.18 21.91 135.618 25.0775 135.045 28.2391C134.531 31.0333 133.999 33.8216 133.486 36.61C133.299 37.6211 133.133 38.6341 132.99 39.6491C132.841 40.705 129.197 40.2325 129.346 39.1533C129.496 38.0741 129.663 37.03 129.86 35.9741C130.374 33.1858 130.905 30.4033 131.419 27.615C131.98 24.5058 132.536 21.3966 132.936 18.2816C133.026 17.5758 133.115 16.87 133.193 16.1583C131.634 16.3391 130.081 16.5433 128.54 16.8583C127.3 17.0631 126.082 17.3814 124.902 17.8091C123.875 18.1825 122.585 14.805 123.606 14.4316C124.961 13.9372 126.361 13.5681 127.787 13.3291C130.356 12.8504 132.948 12.498 135.552 12.2733C138.003 12.0265 140.466 11.9077 142.929 11.9175C144.353 11.8633 145.777 11.9828 147.17 12.2733L147.767 12.495C148.735 12.915 147.266 16.2166 146.262 15.7908Z" fill="#1882FF"/>
<path d="M149.428 26.7284L149.159 28.0292C149.111 28.2587 148.999 28.4708 148.835 28.6425C148.672 28.8142 148.464 28.939 148.233 29.0034C144.082 30.1701 140.97 35.5426 140.223 39.9759C140.044 41.0317 136.424 40.5592 136.58 39.4684C136.843 37.6659 139.417 24.5526 140.002 22.8609C140.48 21.8984 143.789 23.4792 143.311 24.4417C143.007 25.7309 142.858 26.5417 142.601 27.8484C143.598 26.2442 146.37 25.3634 148.036 25.2001C148.239 25.1821 148.443 25.2109 148.633 25.2841C148.822 25.3573 148.991 25.4728 149.127 25.6215C149.262 25.7701 149.36 25.9477 149.412 26.14C149.465 26.3322 149.47 26.5338 149.428 26.7284Z" fill="#1882FF"/>
<path d="M155.097 23.9866C154.969 25.3568 154.769 26.7197 154.499 28.0699C154.101 30.1583 153.681 32.2447 153.239 34.3291C152.948 35.4672 152.748 36.6257 152.642 37.7941C152.576 38.8616 148.902 38.6633 148.962 37.59C148.953 37.3206 148.971 37.0509 149.016 36.785C149.135 35.7058 149.434 34.6441 149.613 33.5825C150.063 31.5291 150.477 29.4719 150.856 27.4108C151.071 26.2441 151.262 25.1299 151.399 23.9808C151.411 22.9133 155.097 22.9133 155.097 23.9866ZM157.139 11.9408C157.078 13.1676 156.937 14.3893 156.715 15.5983C156.53 16.7649 156.303 17.9316 156.082 19.0983C155.879 20.1541 152.259 19.4891 152.462 18.4391C152.665 17.3891 152.898 16.1816 153.06 15.0499C153.245 14.0291 153.37 12.9988 153.436 11.9641C153.46 10.8674 157.139 10.8674 157.139 11.9408Z" fill="#1882FF"/>
<path d="M171.236 28.91C171.045 29.2892 170.818 29.645 170.609 30.0125C169.074 32.3458 166.995 33.9967 164.683 35.5483C163.121 36.563 161.425 37.3656 159.642 37.9342C159.475 37.975 159.308 38.01 159.134 38.0392C158.663 41.02 158.209 44.0067 157.904 47.0108C157.796 48.1775 157.737 49.3792 157.683 50.5633C157.635 51.6367 153.95 51.4792 153.997 50.4058C154.051 49.1517 154.117 47.9033 154.236 46.655C154.595 43.155 155.132 39.655 155.694 36.2075C156.255 32.76 156.93 29.3592 157.593 25.9467C157.916 24.3483 158.244 22.7442 158.692 21.1692C159.009 20.1425 162.539 21.1692 162.222 22.2075C161.972 23.1117 161.763 24.0217 161.565 24.9375C162.084 24.0573 162.683 23.2254 163.357 22.4525C164.282 21.4953 165.464 20.8119 166.768 20.4808C167.049 20.4225 167.33 20.4108 167.616 20.3758C168.344 20.3213 169.074 20.4448 169.74 20.7351C170.407 21.0254 170.988 21.4733 171.433 22.0383C171.638 22.3722 171.819 22.7191 171.977 23.0767C172.086 23.4485 172.171 23.8264 172.234 24.2083C172.376 25.8369 172.03 27.4708 171.236 28.91ZM168.602 24.5058C168.715 24.1208 168.279 23.975 167.963 23.9692C167.257 24.0214 166.598 24.3319 166.117 24.8383C165.288 25.7967 164.602 26.8651 164.08 28.0117C163.334 29.61 162.659 31.2375 162.037 32.8825L162.635 32.5617C164.502 31.4328 166.125 29.9585 167.413 28.2217C168.082 27.0725 168.733 25.8767 168.602 24.5058Z" fill="#1882FF"/>
<path d="M69.77 27.3758L69.6685 27.2008C68.9549 25.8758 67.782 24.8419 66.3594 24.2842C65.7023 23.9283 64.3046 23.5842 59.7889 23.6017C56.5096 23.7067 55.6077 23.1408 55.4703 22.8783C55.4703 22.763 55.4803 22.6479 55.5002 22.5342C55.8822 21.3202 56.5327 20.203 57.4056 19.2617C59.5619 17.1733 60.5893 16.415 61.0731 16.1467L61.1567 16.0942C62.9858 14.7938 64.9976 13.7584 67.1299 13.02C66.9268 13.6033 66.216 14.77 63.9701 17.3017C62.8591 18.2292 62.3275 18.725 62.4529 19.4775C62.527 19.9902 62.8063 20.4532 63.2297 20.7649C63.653 21.0766 64.1857 21.2115 64.7108 21.14L64.9855 21.105C65.4933 21.0233 66.0965 20.7083 67.3748 19.4425L67.4465 19.3667C71.2992 14.7642 71.6277 13.0258 71.4425 12.0225L71.335 11.3925L71.2454 11.2292C71.0608 10.8336 70.7991 10.477 70.4749 10.1792C69.7939 9.23999 68.0856 9.23999 67.1478 9.23999H66.9925L66.8372 9.28082C65.5861 9.56524 64.3804 10.0146 63.2533 10.6167C61.2109 11.5559 59.2783 12.7079 57.4892 14.0525L57.4295 14.0992C53.1109 17.5992 51.2114 20.5158 51.6296 23.0475C51.7833 23.8297 52.1602 24.5536 52.7167 25.1358C53.6067 26.1742 55.1537 26.81 57.4295 27.09H57.543C59.4305 27.1425 61.318 27.16 63.1518 27.1367C64.7944 27.2358 65.7919 27.5975 66.1384 28.2042L66.21 28.6358C66.1472 29.0611 65.9722 29.4631 65.7023 29.8025C65.0352 30.7365 64.1943 31.5399 63.2235 32.1708L60.882 33.7925C57.8391 35.4857 54.6586 36.9315 51.3727 38.115C49.2702 38.8675 48.6549 39.2817 48.3384 39.7075L48.0576 40.0925L48.2308 41.1367L48.6012 41.4108C49.0494 41.7604 49.6045 41.9535 50.1781 41.9592C50.3054 41.9678 50.4331 41.9678 50.5604 41.9592L50.8411 41.9125L51.1398 41.8367C51.2311 41.8454 51.3232 41.8454 51.4145 41.8367H51.528L54.2876 40.7925H54.3593C65.6545 36.3067 70.6302 32.4683 70.009 28.7117L69.77 27.3758Z" fill="#1882FF"/>
<path d="M9.49911 35.0408C8.92939 35.1303 8.36947 35.2715 7.82663 35.4626C6.49497 32.9739 5.68668 30.2501 5.44938 27.4517C5.21208 24.6532 5.55056 21.8367 6.44488 19.168C7.3392 16.4993 8.77129 14.0323 10.6568 11.9123C12.5423 9.79233 14.8431 8.06224 17.4238 6.82393C20.0044 5.58561 22.8127 4.86411 25.6832 4.7019C28.5537 4.53969 31.4284 4.94005 34.1381 5.87942C36.8477 6.81878 39.3375 8.27815 41.4609 10.1716C43.5842 12.065 45.2981 14.3542 46.5016 16.9044L46.0411 16.9569L33.0065 14.6154C32.9618 14.6082 32.9161 14.6119 32.8732 14.6262C32.8304 14.6404 32.7918 14.6648 32.761 14.6971C32.7307 14.7299 32.7098 14.7699 32.7004 14.8131C32.6909 14.8563 32.6933 14.9012 32.7072 14.9432L33.3953 17.2847C33.4108 17.3383 33.4437 17.3856 33.4891 17.4193C33.5344 17.4531 33.5898 17.4716 33.6468 17.472L41.1037 17.5128L39.7394 17.6651L33.2579 18.7192C30.6634 19.3047 28.0384 19.7525 25.3943 20.0608C25.4905 19.9154 25.5746 19.7627 25.6457 19.6041C25.8249 19.4693 26.0525 19.3287 26.3279 19.159C27.1641 18.9601 27.2913 18.4275 27.2913 18.1347V17.9708C27.2777 17.7552 27.1914 17.5501 27.0458 17.3874L26.9981 17.3291C26.9736 17.2975 26.9419 17.272 26.9055 17.2547C26.869 17.2374 26.8289 17.2287 26.7884 17.2293H26.7048C26.3623 17.235 26.0229 17.2941 25.6995 17.4043L25.3411 17.5741C25.1022 17.2463 24.527 17.0298 23.4739 16.8659H23.3843C22.5252 16.9208 21.6787 17.0962 20.8708 17.3868C19.3511 17.8089 17.8855 18.3981 16.502 19.1432C13.2467 21.0222 11.6638 22.7319 11.6638 24.3652C11.6809 24.8526 11.8384 25.3253 12.1183 25.7291C12.5669 26.4548 13.4922 27.0171 14.9789 27.4382C16.2834 27.6844 17.588 27.895 18.8328 28.0764C20.2209 28.3751 20.9933 28.8668 21.1306 29.5347C21.1111 29.5667 21.1008 29.6031 21.1008 29.6403V29.8101C21.1008 29.9157 21.047 30.2184 20.5321 30.7878C19.9166 31.407 19.1871 31.9075 18.3818 32.263L16.6765 33.0534C14.3431 33.9098 11.941 34.5755 9.49493 35.0438L9.49911 35.0408ZM46.9562 17.9696C46.3656 18.2985 45.7252 18.5336 45.0591 18.6661H45.0053C44.1912 18.7717 43.3717 18.8883 42.5516 19.0114L34.5744 21.3185C33.7304 23.1216 33.0065 24.7374 32.4199 26.1304L32.3721 26.2121C32.3243 26.2879 32.1087 26.7038 30.8938 29.6368C30.5354 30.3683 30.2594 30.9948 30.0677 31.5035C30.0259 31.6202 29.864 31.9836 29.1221 33.6402L27.9275 36.3627C27.9153 36.3789 27.9053 36.3965 27.8976 36.4152C27.36 37.1058 27.0895 37.2289 26.8744 37.2523H26.8087C26.7732 37.2593 26.7367 37.2593 26.7012 37.2523C26.3428 37.1175 26.1803 36.9419 26.1803 36.7022C26.1803 35.9882 26.7777 34.3607 28.0356 31.5327C29.2935 28.7047 30.7086 25.2583 32.3088 21.3943V21.3477C32.4198 21.159 32.5195 20.9642 32.6075 20.7643C29.3521 21.3477 27.3947 21.6977 26.7783 21.756L25.7431 21.9024C25.6696 21.9048 25.5963 21.8929 25.5275 21.8674L25.1094 21.9024C24.7414 21.9102 24.3761 21.8404 24.0384 21.6977C23.5719 22.1777 23.0152 22.6928 22.351 23.2668C21.3182 24.0053 20.9419 24.1057 20.7024 24.1057H20.6014C19.9133 24.024 19.5185 23.6431 19.5185 23.0755C19.5185 22.806 19.6738 22.6246 20.6737 22.0337C21.5354 21.3734 22.3365 20.6408 23.0677 19.8444C23.1786 19.4281 23.3947 19.0456 23.6961 18.732C23.6523 18.7347 23.6085 18.7347 23.5647 18.732C21.7917 18.9375 20.0698 19.4467 18.478 20.2364C17.4045 20.7401 16.3893 21.3543 15.4496 22.0687C14.6842 22.6707 14.0701 23.4357 13.654 24.3052C13.6003 24.5099 13.5883 24.5922 13.5824 24.6213C13.5824 25.2047 14.777 25.7104 16.8198 25.9735C20.0632 26.4652 20.8415 26.8631 21.1468 27.1151C21.9891 27.603 22.6257 28.3683 22.9423 29.2734V30.1986C22.9423 32.6486 19.1661 34.6477 11.0557 36.4682L9.06307 36.8428H9.00334C8.94781 36.8522 8.89103 36.8522 8.83549 36.8428H8.64913C11.5142 41.2529 15.9562 44.4649 21.1114 45.8546C26.2667 47.2443 31.7669 46.7122 36.5428 44.3618C41.3186 42.0114 45.029 38.0107 46.9525 33.1374C48.8759 28.264 48.8751 22.8663 46.9502 17.9935L46.9562 17.9696Z" fill="#1882FF"/>
</svg>
