<svg width="18" height="18" viewBox="0 0 18 18" fill="none" xmlns="http://www.w3.org/2000/svg">
<path d="M2.01601 -0.000113483H15.984C16.2498 -0.00533112 16.5138 0.0439767 16.7597 0.144765C17.0057 0.245553 17.2283 0.395683 17.414 0.585887C17.6042 0.771555 17.7543 0.994237 17.8551 1.24019C17.9559 1.48614 18.0052 1.75014 18 2.01589V15.9839C18.0052 16.2496 17.9559 16.5136 17.8551 16.7596C17.7543 17.0055 17.6042 17.2282 17.414 17.4139C17.2283 17.6041 17.0057 17.7542 16.7597 17.855C16.5138 17.9558 16.2498 18.0051 15.984 17.9999H2.01601C1.75026 18.0051 1.48626 17.9558 1.24031 17.855C0.994359 17.7542 0.771677 17.6041 0.586009 17.4139C0.395805 17.2282 0.245674 17.0055 0.144886 16.7596C0.0440978 16.5136 -0.00520905 16.2496 8.59372e-06 15.9839V2.01589C-0.00520905 1.75014 0.0440978 1.48614 0.144886 1.24019C0.245674 0.994237 0.395805 0.771555 0.586009 0.585887C0.771677 0.395683 0.994359 0.245553 1.24031 0.144765C1.48626 0.0439767 1.75026 -0.00533112 2.01601 -0.000113483ZM15 2.01589H12.516C12.0547 2.00243 11.5956 2.0851 11.168 2.25863C10.7404 2.43217 10.3535 2.69277 10.032 3.02389C9.38243 3.67931 9.01247 4.56119 9.00001 5.48389V8.01489H6.98401V11.0149H9.00001V17.9999H12V11.0159H15V8.01589H12V5.99989C11.9968 5.87023 12.0201 5.74129 12.0684 5.62094C12.1167 5.50058 12.189 5.39134 12.281 5.29989C12.3725 5.20793 12.4817 5.13558 12.6021 5.08727C12.7224 5.03895 12.8514 5.01568 12.981 5.01889H15V2.01589Z" fill="#1882FF"/>
</svg>
