<svg width="24" height="24" viewBox="0 0 24 24" fill="none" xmlns="http://www.w3.org/2000/svg">
<path d="M3.25 3.36083C1.67834 4.99333 2 6.7275 2 11.9958C2 16.3708 1.23667 20.7567 5.23167 21.7892C6.47917 22.11 17.5325 22.11 18.7783 21.7875C20.4417 21.3583 21.795 20.0092 21.98 17.6567C22.0058 17.3283 22.0058 6.66917 21.9792 6.33417C21.7825 3.82833 20.24 2.38416 18.2075 2.09166C17.7417 2.02416 17.6483 2.00416 15.2583 2C6.78084 2.00416 4.9225 1.62666 3.25 3.36083Z" fill="url(#paint0_linear)"/>
<path d="M11.9983 4.61577C8.97251 4.61577 6.09917 4.3466 5.00167 7.16327C4.54834 8.3266 4.61417 9.83744 4.61417 12.0008C4.61417 13.8991 4.55334 15.6833 5.00167 16.8374C6.09667 19.6558 8.99334 19.3858 11.9967 19.3858C14.8942 19.3858 17.8817 19.6874 18.9925 16.8374C19.4467 15.6624 19.38 14.1741 19.38 12.0008C19.38 9.11577 19.5392 7.25327 18.14 5.85494C16.7233 4.43827 14.8075 4.61577 11.995 4.61577H11.9983ZM11.3367 5.9466C17.6483 5.9366 18.4517 5.23494 18.0083 14.9824C17.8508 18.4299 15.2258 18.0516 11.9992 18.0516C6.11584 18.0516 5.94667 17.8833 5.94667 11.9974C5.94667 6.04327 6.41334 5.94994 11.3367 5.94494V5.9466ZM15.94 7.17244C15.4508 7.17244 15.0542 7.5691 15.0542 8.05827C15.0542 8.54744 15.4508 8.9441 15.94 8.9441C16.4292 8.9441 16.8258 8.54744 16.8258 8.05827C16.8258 7.5691 16.4292 7.17244 15.94 7.17244ZM11.9983 8.20827C9.90417 8.20827 8.20668 9.9066 8.20668 12.0008C8.20668 14.0949 9.90417 15.7924 11.9983 15.7924C14.0925 15.7924 15.7892 14.0949 15.7892 12.0008C15.7892 9.9066 14.0925 8.20827 11.9983 8.20827ZM11.9983 9.5391C15.2525 9.5391 15.2567 14.4624 11.9983 14.4624C8.74501 14.4624 8.74001 9.5391 11.9983 9.5391Z" fill="white"/>
<defs>
<linearGradient id="paint0_linear" x1="3.28835" y1="20.7226" x2="21.8762" y2="4.63498" gradientUnits="userSpaceOnUse">
<stop stop-color="#FFDD55"/>
<stop offset="0.5" stop-color="#FF543E"/>
<stop offset="1" stop-color="#C837AB"/>
</linearGradient>
</defs>
</svg>
