<svg width="24" height="24" viewBox="0 0 24 24" fill="none" xmlns="http://www.w3.org/2000/svg">
<path d="M9.04225 21.5775C10.0438 21.8592 11.0297 22 12 22C13.3146 22 14.5822 21.7496 15.8028 21.2488C17.0548 20.748 18.1502 20.0282 19.0892 19.0892C20.0282 18.1502 20.748 17.0704 21.2488 15.8498C21.7496 14.5978 22 13.3146 22 12C22 10.6854 21.7496 9.41784 21.2488 8.19718C20.748 6.94523 20.0282 5.84977 19.0892 4.9108C18.1502 3.97183 17.0548 3.25196 15.8028 2.75117C14.5822 2.25039 13.3146 2 12 2C10.6854 2 9.40219 2.25039 8.15024 2.75117C6.92958 3.25196 5.84977 3.97183 4.9108 4.9108C3.97183 5.84977 3.25196 6.94523 2.75117 8.19718C2.25039 9.41784 2 10.6854 2 12C2 14.097 2.59468 16.0063 3.78404 17.7277C4.9734 19.4178 6.52269 20.6228 8.43193 21.3427C8.27543 20.0908 8.27543 19.1049 8.43193 18.385L9.60563 13.4554L9.41784 13.0329C9.32394 12.6886 9.277 12.3286 9.277 11.9531C9.277 11.2645 9.46479 10.6854 9.84038 10.216C10.216 9.74648 10.6541 9.51174 11.1549 9.51174C11.5618 9.51174 11.8748 9.65258 12.0939 9.93427C12.313 10.1847 12.4225 10.5133 12.4225 10.9202C12.4225 11.3271 12.266 12 11.9531 12.939C11.734 13.5023 11.5931 13.9405 11.5305 14.2535C11.4366 14.7543 11.5462 15.1925 11.8592 15.5681C12.1721 15.9124 12.579 16.0845 13.0798 16.0845C13.9562 16.0845 14.6917 15.662 15.2864 14.8169C15.9124 13.9405 16.2254 12.8294 16.2254 11.4836C16.2254 10.2942 15.8341 9.32394 15.0516 8.57277C14.2692 7.8216 13.2676 7.44601 12.0469 7.44601C10.6698 7.44601 9.55869 7.88419 8.71362 8.76056C7.93114 9.60563 7.53991 10.6072 7.53991 11.7653C7.53991 12.2034 7.6025 12.626 7.7277 13.0329C7.8529 13.4397 8.04069 13.784 8.29108 14.0657C8.35368 14.1283 8.36933 14.2222 8.33803 14.3474L8.05634 15.4742C8.05634 15.5368 8.02504 15.5837 7.96244 15.615C7.93114 15.6463 7.86854 15.6307 7.77465 15.5681C7.14867 15.2864 6.64789 14.7543 6.2723 13.9718C5.92801 13.252 5.75587 12.5008 5.75587 11.7183C5.75587 10.6228 6.00626 9.62128 6.50704 8.71362C7.00782 7.77465 7.74335 7.05477 8.71362 6.55399C9.74648 5.95931 10.9515 5.66197 12.3286 5.66197C13.4554 5.66197 14.4883 5.91236 15.4272 6.41315C16.3662 6.91393 17.1017 7.6025 17.6338 8.47887C18.1659 9.35524 18.4319 10.3568 18.4319 11.4836C18.4319 12.579 18.2128 13.6119 17.7746 14.5822C17.3365 15.5211 16.7261 16.2723 15.9437 16.8357C15.1612 17.3678 14.2692 17.6338 13.2676 17.6338C12.7981 17.6338 12.3443 17.5243 11.9061 17.3052C11.4679 17.0861 11.1706 16.82 11.0141 16.507L10.3099 18.9014C10.1221 19.6213 9.69953 20.5133 9.04225 21.5775Z" fill="#E60023"/>
</svg>
